<?xml version="1.0" encoding="UTF-8" standalone="no"?>
<!DOCTYPE svg PUBLIC "-//W3C//DTD SVG 1.1//EN" "http://www.w3.org/Graphics/SVG/1.1/DTD/svg11.dtd">
<svg width="100%" height="100%" viewBox="0 0 192 310" version="1.1" xmlns="http://www.w3.org/2000/svg" xmlns:xlink="http://www.w3.org/1999/xlink" xml:space="preserve" style="fill-rule:evenodd;clip-rule:evenodd;stroke-linejoin:round;stroke-miterlimit:1.41421;">
    <g transform="matrix(1,0,0,1,-205.862,-424.153)">
        <g transform="matrix(1.30953,0,0,1.30953,177.367,363.923)">
            <path d="M141.614,254.006L46.368,254.006L25.866,242.058L25.866,45.994L141.614,45.994L141.614,254.006Z" style="fill:rgb(42,63,102);fill-rule:nonzero;"/>
            <g transform="matrix(0.887754,0,0,1,20.6954,-0.211446)">
                <path d="M117.849,205.638C117.849,224.476 102.578,239.748 83.741,239.748C64.903,239.748 49.631,224.476 49.631,205.638C49.631,186.8 64.903,171.529 83.741,171.529C102.578,171.529 117.849,186.8 117.849,205.638" style="fill:rgb(75,123,190);fill-rule:nonzero;"/>
            </g>
            <g transform="matrix(0.887754,0,0,1,20.6954,-0.211446)">
                <path d="M83.996,167.251L84.25,167.254L84.505,167.258L84.759,167.263L85.012,167.271L85.266,167.279L85.518,167.29L85.771,167.302L86.023,167.315L86.275,167.331L86.526,167.347L86.777,167.366L87.027,167.385L87.278,167.407L87.527,167.43L87.776,167.454L88.025,167.48L88.273,167.508L88.521,167.537L88.768,167.568L89.016,167.6L89.261,167.634L89.507,167.669L89.753,167.706L89.997,167.744L90.242,167.783L90.486,167.825L90.729,167.867L90.973,167.912L91.214,167.957L91.456,168.004L91.698,168.053L91.938,168.103L92.178,168.154L92.418,168.207L92.657,168.262L92.895,168.317L93.133,168.375L93.37,168.433L93.607,168.493L93.843,168.555L94.078,168.618L94.313,168.682L94.547,168.748L94.781,168.815L95.014,168.884L95.245,168.953L95.477,169.025L95.708,169.097L95.938,169.171L96.168,169.247L96.397,169.323L96.625,169.401L96.853,169.481L97.08,169.561L97.306,169.643L97.531,169.727L97.756,169.811L97.98,169.897L98.204,169.985L98.426,170.073L98.648,170.163L98.87,170.254L99.091,170.347L99.31,170.441L99.529,170.535L99.747,170.632L99.965,170.73L100.181,170.828L100.397,170.928L100.613,171.03L100.827,171.132L101.041,171.236L101.254,171.341L101.466,171.447L101.677,171.555L101.887,171.663L102.097,171.773L102.306,171.884L102.514,171.996L102.721,172.11L102.928,172.224L103.134,172.34L103.339,172.457L103.542,172.575L103.745,172.694L103.948,172.815L104.149,172.936L104.349,173.059L104.549,173.183L104.748,173.308L104.946,173.434L105.143,173.561L105.34,173.69L105.535,173.819L105.729,173.949L105.924,174.081L106.116,174.214L106.307,174.348L106.499,174.483L106.689,174.619L106.878,174.756L107.066,174.894L107.253,175.033L107.44,175.173L107.625,175.315L107.81,175.457L107.993,175.6L108.176,175.745L108.357,175.89L108.538,176.037L108.718,176.184L108.897,176.332L109.075,176.482L109.252,176.633L109.428,176.784L109.603,176.937L109.777,177.091L109.95,177.245L110.122,177.4L110.293,177.557L110.463,177.714L110.632,177.873L110.801,178.032L110.968,178.192L111.133,178.353L111.299,178.516L111.463,178.679L111.626,178.843L111.788,179.008L111.949,179.174L112.109,179.341L112.268,179.508L112.426,179.677L112.583,179.846L112.739,180.017L112.894,180.189L113.048,180.361L113.2,180.534L113.352,180.708L113.502,180.883L113.652,181.058L113.8,181.235L113.948,181.413L114.094,181.591L114.239,181.77L114.384,181.95L114.527,182.131L114.669,182.313L114.81,182.496L114.949,182.679L115.088,182.863L115.225,183.048L115.362,183.234L115.497,183.421L115.631,183.608L115.764,183.797L115.896,183.986L116.027,184.176L116.157,184.366L116.286,184.558L116.413,184.75L116.539,184.943L116.664,185.137L116.788,185.331L116.911,185.527L117.032,185.723L117.153,185.92L117.272,186.117L117.39,186.316L117.507,186.515L117.622,186.715L117.737,186.915L117.85,187.116L117.962,187.318L118.073,187.521L118.183,187.724L118.291,187.928L118.398,188.133L118.505,188.339L118.609,188.545L118.713,188.752L118.815,188.959L118.916,189.168L119.016,189.376L119.115,189.586L119.212,189.796L119.308,190.007L119.403,190.218L119.497,190.431L119.589,190.644L119.68,190.857L119.77,191.071L119.858,191.286L119.946,191.501L120.032,191.717L120.116,191.934L120.2,192.151L120.282,192.369L120.362,192.587L120.442,192.806L120.52,193.026L120.597,193.246L120.672,193.467L120.747,193.688L120.819,193.91L120.891,194.133L120.961,194.356L121.03,194.58L121.097,194.804L121.163,195.029L121.228,195.254L121.291,195.48L121.353,195.706L121.414,195.933L121.473,196.161L121.531,196.389L121.588,196.617L121.643,196.846L121.697,197.076L121.749,197.306L121.8,197.536L121.85,197.767L121.898,197.999L121.944,198.231L121.99,198.463L122.034,198.696L122.076,198.93L122.117,199.164L122.157,199.398L122.195,199.633L122.231,199.868L122.267,200.104L122.301,200.34L122.333,200.577L122.364,200.814L122.393,201.051L122.421,201.289L122.448,201.527L122.473,201.766L122.496,202.005L122.518,202.245L122.539,202.485L122.558,202.725L122.575,202.966L122.591,203.207L122.606,203.448L122.619,203.69L122.63,203.932L122.64,204.175L122.649,204.418L122.656,204.661L122.661,204.905L122.665,205.149L122.667,205.393L122.668,205.638L122.667,205.882L122.665,206.127L122.661,206.371L122.656,206.614L122.649,206.857L122.64,207.101L122.63,207.343L122.619,207.585L122.606,207.827L122.591,208.068L122.575,208.31L122.558,208.55L122.539,208.791L122.518,209.031L122.496,209.27L122.473,209.509L122.448,209.748L122.421,209.986L122.393,210.224L122.364,210.462L122.333,210.699L122.301,210.935L122.267,211.171L122.231,211.407L122.195,211.643L122.157,211.877L122.117,212.112L122.076,212.346L122.034,212.579L121.99,212.812L121.944,213.045L121.898,213.277L121.85,213.508L121.8,213.739L121.749,213.97L121.697,214.2L121.643,214.429L121.588,214.658L121.531,214.887L121.473,215.115L121.414,215.342L121.353,215.569L121.291,215.796L121.228,216.021L121.163,216.247L121.097,216.472L121.03,216.696L120.961,216.919L120.891,217.143L120.819,217.365L120.747,217.587L120.672,217.808L120.597,218.029L120.52,218.249L120.442,218.469L120.362,218.688L120.282,218.907L120.2,219.124L120.116,219.342L120.032,219.558L119.946,219.774L119.859,219.99L119.77,220.205L119.68,220.418L119.589,220.632L119.497,220.845L119.403,221.057L119.308,221.268L119.212,221.48L119.115,221.69L119.016,221.899L118.916,222.108L118.815,222.316L118.713,222.524L118.609,222.731L118.505,222.937L118.399,223.142L118.291,223.347L118.183,223.551L118.073,223.755L117.962,223.957L117.85,224.159L117.737,224.361L117.622,224.561L117.507,224.761L117.39,224.96L117.272,225.158L117.153,225.356L117.032,225.553L116.91,225.749L116.788,225.944L116.664,226.138L116.539,226.332L116.413,226.526L116.285,226.718L116.157,226.909L116.027,227.1L115.896,227.29L115.764,227.479L115.631,227.667L115.497,227.855L115.362,228.042L115.225,228.227L115.088,228.412L114.949,228.597L114.81,228.78L114.669,228.963L114.526,229.145L114.384,229.325L114.239,229.506L114.094,229.685L113.948,229.863L113.8,230.041L113.652,230.217L113.502,230.393L113.352,230.568L113.2,230.742L113.048,230.915L112.894,231.087L112.739,231.259L112.583,231.429L112.426,231.599L112.268,231.768L112.109,231.935L111.949,232.102L111.788,232.268L111.626,232.433L111.463,232.597L111.299,232.76L111.134,232.922L110.968,233.084L110.8,233.244L110.632,233.403L110.463,233.562L110.293,233.719L110.122,233.876L109.95,234.031L109.777,234.185L109.603,234.339L109.428,234.492L109.252,234.643L109.075,234.794L108.897,234.943L108.718,235.092L108.538,235.239L108.357,235.386L108.176,235.531L107.993,235.676L107.81,235.819L107.625,235.961L107.44,236.103L107.254,236.243L107.066,236.382L106.878,236.52L106.689,236.657L106.498,236.794L106.308,236.928L106.116,237.062L105.923,237.195L105.729,237.327L105.535,237.457L105.34,237.587L105.144,237.715L104.946,237.842L104.748,237.968L104.55,238.093L104.349,238.217L104.149,238.34L103.948,238.461L103.746,238.582L103.542,238.701L103.339,238.819L103.134,238.936L102.928,239.052L102.721,239.167L102.514,239.28L102.306,239.392L102.097,239.503L101.887,239.613L101.677,239.722L101.466,239.829L101.254,239.935L101.041,240.04L100.827,240.144L100.613,240.246L100.398,240.348L100.181,240.448L99.965,240.547L99.747,240.644L99.529,240.741L99.31,240.836L99.09,240.929L98.87,241.022L98.648,241.113L98.426,241.203L98.204,241.292L97.981,241.379L97.756,241.465L97.531,241.55L97.306,241.633L97.08,241.715L96.853,241.796L96.625,241.875L96.397,241.953L96.168,242.03L95.938,242.105L95.708,242.179L95.478,242.252L95.246,242.323L95.013,242.393L94.781,242.461L94.547,242.528L94.313,242.594L94.078,242.659L93.843,242.721L93.607,242.783L93.37,242.843L93.133,242.902L92.895,242.959L92.657,243.015L92.418,243.069L92.178,243.122L91.938,243.173L91.698,243.224L91.456,243.272L91.214,243.319L90.972,243.365L90.73,243.409L90.486,243.452L90.242,243.493L89.998,243.533L89.753,243.571L89.507,243.608L89.261,243.643L89.015,243.676L88.768,243.709L88.521,243.739L88.273,243.768L88.025,243.796L87.776,243.822L87.527,243.847L87.278,243.87L87.027,243.891L86.777,243.911L86.526,243.929L86.275,243.946L86.023,243.961L85.771,243.975L85.518,243.987L85.266,243.997L85.013,244.006L84.759,244.013L84.505,244.019L84.25,244.023L83.996,244.025L83.741,244.026L83.486,244.025L83.232,244.023L82.978,244.019L82.723,244.013L82.469,244.006L82.216,243.997L81.964,243.987L81.712,243.975L81.459,243.961L81.207,243.946L80.956,243.929L80.705,243.911L80.455,243.891L80.204,243.87L79.955,243.847L79.706,243.822L79.457,243.796L79.209,243.768L78.961,243.739L78.714,243.709L78.467,243.677L78.221,243.643L77.975,243.608L77.729,243.571L77.484,243.533L77.24,243.493L76.996,243.452L76.752,243.409L76.51,243.365L76.268,243.319L76.026,243.272L75.784,243.224L75.544,243.174L75.304,243.122L75.064,243.069L74.825,243.015L74.587,242.959L74.349,242.902L74.112,242.843L73.875,242.783L73.639,242.721L73.404,242.659L73.169,242.594L72.934,242.528L72.701,242.461L72.469,242.393L72.236,242.323L72.004,242.252L71.774,242.179L71.543,242.105L71.313,242.03L71.085,241.953L70.856,241.875L70.629,241.796L70.402,241.715L70.176,241.633L69.95,241.55L69.725,241.465L69.501,241.379L69.278,241.292L69.055,241.203L68.833,241.113L68.612,241.022L68.391,240.929L68.172,240.836L67.952,240.741L67.734,240.644L67.517,240.547L67.3,240.448L67.084,240.348L66.868,240.246L66.655,240.144L66.441,240.04L66.227,239.935L66.015,239.829L65.804,239.722L65.594,239.613L65.384,239.503L65.175,239.392L64.967,239.28L64.76,239.167L64.553,239.052L64.348,238.936L64.143,238.819L63.939,238.701L63.736,238.582L63.533,238.461L63.332,238.34L63.132,238.217L62.932,238.093L62.733,237.968L62.535,237.842L62.337,237.715L62.141,237.587L61.946,237.457L61.752,237.327L61.558,237.195L61.365,237.062L61.173,236.928L60.983,236.794L60.792,236.657L60.604,236.521L60.415,236.382L60.228,236.243L60.042,236.103L59.856,235.962L59.671,235.819L59.488,235.676L59.305,235.531L59.124,235.386L58.943,235.24L58.763,235.092L58.584,234.943L58.406,234.794L58.229,234.643L58.053,234.492L57.878,234.339L57.704,234.186L57.531,234.031L57.359,233.876L57.188,233.719L57.018,233.562L56.849,233.404L56.681,233.244L56.513,233.084L56.347,232.923L56.182,232.76L56.018,232.597L55.855,232.433L55.693,232.268L55.532,232.102L55.372,231.935L55.213,231.768L55.055,231.599L54.898,231.429L54.742,231.259L54.587,231.087L54.433,230.915L54.28,230.742L54.129,230.568L53.978,230.393L53.829,230.217L53.68,230.041L53.533,229.863L53.387,229.685L53.241,229.506L53.097,229.325L52.954,229.145L52.812,228.963L52.671,228.78L52.532,228.597L52.393,228.412L52.255,228.227L52.119,228.042L51.983,227.855L51.849,227.667L51.716,227.479L51.584,227.29L51.453,227.1L51.324,226.909L51.195,226.718L51.068,226.526L50.942,226.332L50.817,226.139L50.693,225.944L50.57,225.749L50.449,225.553L50.328,225.356L50.209,225.158L50.091,224.96L49.974,224.761L49.858,224.561L49.744,224.361L49.63,224.16L49.518,223.957L49.407,223.755L49.298,223.551L49.189,223.347L49.082,223.143L48.976,222.937L48.871,222.731L48.768,222.524L48.665,222.317L48.564,222.108L48.464,221.899L48.366,221.69L48.268,221.48L48.172,221.269L48.077,221.057L47.984,220.845L47.891,220.632L47.8,220.419L47.71,220.205L47.622,219.99L47.535,219.774L47.449,219.558L47.364,219.342L47.281,219.124L47.199,218.907L47.118,218.688L47.038,218.469L46.96,218.25L46.884,218.029L46.808,217.808L46.734,217.587L46.661,217.365L46.589,217.143L46.519,216.919L46.451,216.696L46.383,216.472L46.317,216.247L46.252,216.021L46.189,215.796L46.127,215.569L46.066,215.342L46.007,215.115L45.949,214.887L45.892,214.658L45.837,214.429L45.784,214.2L45.731,213.97L45.68,213.739L45.631,213.508L45.583,213.277L45.536,213.045L45.491,212.812L45.447,212.579L45.404,212.346L45.363,212.112L45.324,211.877L45.285,211.643L45.249,211.407L45.213,211.172L45.18,210.935L45.147,210.699L45.116,210.462L45.087,210.224L45.059,209.986L45.033,209.748L45.008,209.509L44.984,209.27L44.962,209.031L44.941,208.791L44.922,208.55L44.905,208.31L44.889,208.069L44.874,207.827L44.861,207.585L44.85,207.343L44.84,207.101L44.831,206.857L44.824,206.614L44.819,206.371L44.815,206.127L44.813,205.882L44.812,205.638L44.813,205.393L44.815,205.149L44.819,204.905L44.824,204.661L44.831,204.418L44.84,204.175L44.85,203.932L44.861,203.69L44.874,203.448L44.889,203.207L44.905,202.966L44.922,202.725L44.941,202.485L44.962,202.245L44.984,202.005L45.008,201.766L45.033,201.527L45.059,201.289L45.087,201.051L45.116,200.814L45.147,200.577L45.18,200.34L45.213,200.104L45.249,199.868L45.285,199.633L45.324,199.398L45.363,199.164L45.404,198.93L45.447,198.696L45.491,198.463L45.536,198.231L45.583,197.999L45.631,197.767L45.68,197.536L45.731,197.306L45.784,197.076L45.837,196.846L45.892,196.617L45.949,196.389L46.007,196.161L46.066,195.933L46.127,195.706L46.189,195.48L46.252,195.254L46.317,195.029L46.383,194.804L46.451,194.579L46.519,194.356L46.59,194.133L46.661,193.91L46.734,193.688L46.808,193.467L46.884,193.246L46.96,193.026L47.038,192.806L47.118,192.587L47.199,192.369L47.281,192.151L47.364,191.934L47.449,191.717L47.535,191.501L47.622,191.286L47.71,191.071L47.8,190.857L47.891,190.644L47.983,190.431L48.077,190.218L48.172,190.007L48.268,189.796L48.366,189.586L48.464,189.376L48.564,189.168L48.665,188.959L48.768,188.752L48.871,188.545L48.976,188.338L49.082,188.133L49.189,187.928L49.298,187.724L49.407,187.521L49.518,187.318L49.63,187.116L49.744,186.915L49.858,186.715L49.974,186.515L50.091,186.316L50.209,186.117L50.328,185.92L50.448,185.723L50.57,185.527L50.693,185.331L50.817,185.137L50.942,184.943L51.068,184.75L51.195,184.558L51.324,184.366L51.454,184.176L51.584,183.986L51.716,183.797L51.849,183.608L51.983,183.421L52.119,183.234L52.256,183.048L52.393,182.863L52.531,182.679L52.671,182.496L52.812,182.313L52.954,182.131L53.097,181.95L53.241,181.77L53.387,181.591L53.533,181.413L53.68,181.235L53.829,181.058L53.978,180.883L54.129,180.708L54.281,180.534L54.433,180.361L54.587,180.188L54.742,180.017L54.898,179.846L55.055,179.677L55.213,179.508L55.372,179.34L55.532,179.174L55.693,179.008L55.855,178.843L56.018,178.679L56.182,178.516L56.347,178.353L56.513,178.192L56.68,178.032L56.849,177.872L57.018,177.714L57.188,177.557L57.359,177.4L57.531,177.245L57.704,177.09L57.878,176.937L58.053,176.784L58.229,176.633L58.406,176.482L58.584,176.332L58.763,176.184L58.943,176.037L59.124,175.89L59.305,175.745L59.488,175.6L59.671,175.457L59.856,175.314L60.042,175.173L60.228,175.033L60.416,174.894L60.604,174.755L60.792,174.619L60.982,174.483L61.174,174.347L61.366,174.214L61.558,174.081L61.752,173.949L61.946,173.819L62.141,173.689L62.338,173.561L62.535,173.434L62.733,173.308L62.932,173.183L63.132,173.059L63.332,172.936L63.534,172.815L63.736,172.694L63.939,172.575L64.143,172.457L64.348,172.34L64.553,172.224L64.76,172.11L64.967,171.996L65.175,171.884L65.384,171.773L65.594,171.663L65.804,171.555L66.016,171.447L66.228,171.341L66.44,171.236L66.654,171.132L66.869,171.03L67.084,170.928L67.3,170.828L67.517,170.73L67.734,170.632L67.953,170.535L68.172,170.441L68.391,170.347L68.612,170.254L68.834,170.163L69.055,170.073L69.277,169.985L69.501,169.897L69.726,169.811L69.95,169.727L70.176,169.643L70.402,169.561L70.629,169.481L70.856,169.401L71.085,169.323L71.313,169.247L71.543,169.171L71.774,169.097L72.005,169.025L72.236,168.953L72.468,168.884L72.701,168.815L72.935,168.748L73.169,168.682L73.404,168.618L73.639,168.555L73.875,168.493L74.112,168.433L74.349,168.375L74.587,168.317L74.825,168.262L75.064,168.207L75.304,168.154L75.544,168.103L75.784,168.053L76.026,168.004L76.268,167.957L76.509,167.912L76.753,167.867L76.996,167.825L77.24,167.783L77.485,167.744L77.729,167.706L77.975,167.669L78.221,167.634L78.466,167.6L78.714,167.568L78.961,167.537L79.209,167.508L79.457,167.48L79.706,167.454L79.955,167.43L80.204,167.407L80.455,167.385L80.705,167.366L80.956,167.347L81.207,167.331L81.459,167.315L81.712,167.302L81.964,167.29L82.216,167.279L82.47,167.271L82.723,167.263L82.977,167.258L83.232,167.254L83.486,167.251L83.741,167.251L83.996,167.251ZM83.555,175.808L83.369,175.809L83.184,175.812L82.998,175.816L82.813,175.822L82.629,175.828L82.444,175.836L82.26,175.844L82.077,175.854L81.894,175.865L81.711,175.877L81.528,175.891L81.346,175.905L81.165,175.921L80.983,175.937L80.801,175.955L80.62,175.974L80.44,175.994L80.259,176.016L80.08,176.038L79.901,176.061L79.721,176.086L79.542,176.111L79.364,176.138L79.186,176.166L79.008,176.195L78.831,176.225L78.653,176.256L78.478,176.288L78.301,176.321L78.125,176.355L77.95,176.391L77.774,176.427L77.599,176.464L77.425,176.503L77.251,176.543L77.077,176.583L76.903,176.625L76.731,176.668L76.558,176.712L76.386,176.757L76.214,176.802L76.043,176.849L75.871,176.898L75.701,176.946L75.531,176.996L75.361,177.048L75.191,177.1L75.022,177.153L74.854,177.207L74.686,177.262L74.518,177.318L74.35,177.376L74.183,177.434L74.017,177.493L73.851,177.553L73.685,177.615L73.519,177.677L73.355,177.74L73.191,177.804L73.026,177.87L72.862,177.936L72.7,178.003L72.537,178.071L72.374,178.141L72.213,178.211L72.052,178.282L71.891,178.354L71.73,178.427L71.57,178.501L71.411,178.576L71.252,178.652L71.094,178.729L70.935,178.807L70.778,178.886L70.621,178.966L70.464,179.047L70.308,179.129L70.153,179.211L69.998,179.295L69.843,179.379L69.689,179.465L69.536,179.551L69.383,179.639L69.23,179.727L69.078,179.816L68.927,179.906L68.776,179.997L68.625,180.089L68.475,180.182L68.326,180.276L68.178,180.371L68.03,180.466L67.882,180.563L67.735,180.66L67.588,180.758L67.443,180.857L67.297,180.958L67.152,181.059L67.009,181.16L66.865,181.263L66.722,181.367L66.579,181.472L66.438,181.577L66.296,181.683L66.156,181.79L66.016,181.898L65.876,182.007L65.738,182.117L65.6,182.227L65.462,182.339L65.325,182.451L65.189,182.564L65.053,182.678L64.919,182.793L64.784,182.908L64.651,183.025L64.518,183.142L64.385,183.26L64.254,183.379L64.123,183.499L63.992,183.619L63.863,183.741L63.735,183.862L63.606,183.986L63.478,184.11L63.352,184.234L63.226,184.359L63.1,184.485L62.976,184.612L62.852,184.74L62.728,184.869L62.606,184.998L62.484,185.128L62.363,185.259L62.243,185.39L62.123,185.522L62.005,185.655L61.886,185.789L61.769,185.924L61.653,186.059L61.537,186.195L61.422,186.332L61.308,186.47L61.194,186.608L61.082,186.747L60.97,186.887L60.859,187.027L60.749,187.168L60.639,187.31L60.53,187.453L60.422,187.596L60.315,187.74L60.209,187.885L60.104,188.03L59.999,188.176L59.896,188.323L59.793,188.471L59.691,188.619L59.589,188.767L59.489,188.917L59.39,189.067L59.291,189.218L59.193,189.37L59.096,189.522L59,189.674L58.905,189.828L58.811,189.982L58.717,190.137L58.625,190.292L58.533,190.448L58.443,190.605L58.353,190.762L58.264,190.92L58.176,191.078L58.089,191.238L58.003,191.397L57.917,191.558L57.833,191.719L57.75,191.88L57.667,192.042L57.586,192.205L57.505,192.369L57.426,192.532L57.347,192.697L57.269,192.862L57.192,193.028L57.117,193.194L57.042,193.361L56.968,193.528L56.895,193.696L56.823,193.865L56.752,194.034L56.682,194.204L56.614,194.373L56.546,194.544L56.479,194.716L56.413,194.887L56.348,195.06L56.284,195.233L56.221,195.406L56.159,195.58L56.098,195.754L56.039,195.929L55.98,196.104L55.922,196.28L55.866,196.457L55.81,196.633L55.755,196.811L55.702,196.989L55.649,197.167L55.598,197.346L55.548,197.525L55.498,197.705L55.45,197.885L55.403,198.066L55.357,198.247L55.312,198.429L55.268,198.611L55.226,198.794L55.184,198.976L55.143,199.16L55.104,199.344L55.066,199.528L55.028,199.713L54.992,199.898L54.957,200.084L54.924,200.27L54.891,200.456L54.859,200.643L54.829,200.831L54.8,201.018L54.771,201.206L54.744,201.395L54.719,201.584L54.694,201.773L54.67,201.963L54.648,202.153L54.627,202.344L54.607,202.534L54.588,202.726L54.57,202.917L54.554,203.109L54.539,203.302L54.525,203.494L54.512,203.687L54.5,203.881L54.49,204.075L54.481,204.269L54.473,204.464L54.466,204.658L54.46,204.854L54.456,205.049L54.453,205.245L54.451,205.441L54.45,205.638L54.451,205.834L54.453,206.031L54.456,206.226L54.46,206.422L54.466,206.617L54.473,206.812L54.481,207.006L54.49,207.201L54.5,207.394L54.512,207.588L54.525,207.781L54.539,207.974L54.554,208.166L54.57,208.358L54.588,208.55L54.607,208.741L54.627,208.932L54.648,209.122L54.67,209.313L54.694,209.502L54.719,209.692L54.744,209.881L54.771,210.069L54.8,210.257L54.829,210.445L54.859,210.632L54.891,210.819L54.924,211.006L54.957,211.192L54.992,211.377L55.028,211.563L55.066,211.747L55.104,211.932L55.143,212.115L55.184,212.299L55.226,212.482L55.268,212.664L55.312,212.847L55.357,213.028L55.403,213.21L55.45,213.39L55.498,213.57L55.548,213.75L55.598,213.93L55.649,214.109L55.702,214.287L55.755,214.465L55.81,214.642L55.866,214.819L55.922,214.995L55.98,215.171L56.039,215.347L56.098,215.521L56.159,215.696L56.221,215.87L56.284,216.043L56.348,216.216L56.413,216.388L56.479,216.56L56.546,216.731L56.614,216.902L56.682,217.072L56.752,217.242L56.823,217.411L56.895,217.579L56.968,217.747L57.042,217.915L57.117,218.081L57.192,218.248L57.269,218.413L57.347,218.578L57.426,218.743L57.505,218.907L57.586,219.07L57.667,219.233L57.75,219.395L57.833,219.557L57.917,219.718L58.003,219.878L58.089,220.038L58.176,220.197L58.264,220.356L58.353,220.513L58.443,220.671L58.533,220.827L58.625,220.983L58.717,221.139L58.811,221.294L58.905,221.448L59,221.601L59.096,221.754L59.193,221.906L59.291,222.058L59.39,222.208L59.489,222.359L59.589,222.508L59.691,222.657L59.793,222.805L59.896,222.953L59.999,223.1L60.104,223.246L60.209,223.391L60.315,223.536L60.423,223.68L60.53,223.823L60.639,223.966L60.749,224.108L60.859,224.248L60.97,224.389L61.082,224.529L61.194,224.668L61.308,224.806L61.422,224.944L61.537,225.081L61.653,225.217L61.769,225.352L61.887,225.487L62.005,225.62L62.123,225.754L62.243,225.886L62.363,226.017L62.484,226.148L62.606,226.278L62.728,226.407L62.852,226.536L62.976,226.664L63.1,226.79L63.226,226.917L63.352,227.042L63.479,227.167L63.606,227.29L63.734,227.413L63.863,227.535L63.993,227.657L64.123,227.777L64.254,227.897L64.385,228.016L64.518,228.134L64.651,228.251L64.784,228.368L64.919,228.483L65.054,228.598L65.189,228.712L65.325,228.825L65.462,228.937L65.6,229.049L65.738,229.159L65.876,229.269L66.016,229.378L66.156,229.486L66.296,229.593L66.438,229.699L66.579,229.805L66.722,229.909L66.865,230.013L67.008,230.115L67.153,230.217L67.297,230.318L67.442,230.418L67.588,230.518L67.735,230.616L67.882,230.713L68.03,230.81L68.178,230.905L68.326,231L68.476,231.094L68.625,231.187L68.776,231.279L68.927,231.37L69.079,231.46L69.23,231.549L69.383,231.638L69.536,231.725L69.689,231.811L69.843,231.897L69.998,231.982L70.153,232.065L70.308,232.148L70.464,232.229L70.621,232.31L70.778,232.39L70.936,232.469L71.093,232.547L71.252,232.624L71.411,232.7L71.571,232.775L71.73,232.849L71.891,232.922L72.052,232.994L72.213,233.066L72.374,233.136L72.537,233.205L72.7,233.273L72.863,233.34L73.026,233.407L73.19,233.472L73.355,233.536L73.52,233.599L73.685,233.661L73.851,233.723L74.017,233.783L74.183,233.842L74.35,233.901L74.518,233.958L74.686,234.014L74.854,234.069L75.022,234.123L75.192,234.177L75.361,234.229L75.531,234.28L75.701,234.33L75.872,234.379L76.043,234.427L76.214,234.474L76.386,234.52L76.558,234.565L76.731,234.609L76.903,234.651L77.077,234.693L77.251,234.734L77.425,234.773L77.599,234.812L77.774,234.849L77.95,234.886L78.125,234.921L78.301,234.955L78.477,234.989L78.654,235.021L78.831,235.052L79.008,235.082L79.186,235.111L79.364,235.138L79.542,235.165L79.721,235.191L79.9,235.215L80.08,235.239L80.26,235.261L80.44,235.282L80.62,235.302L80.801,235.321L80.983,235.339L81.165,235.356L81.346,235.371L81.528,235.386L81.711,235.399L81.894,235.411L82.077,235.422L82.26,235.432L82.444,235.441L82.629,235.448L82.814,235.455L82.998,235.46L83.183,235.464L83.369,235.467L83.555,235.469L83.741,235.47L83.927,235.469L84.114,235.467L84.299,235.464L84.484,235.46L84.668,235.455L84.853,235.448L85.038,235.441L85.222,235.432L85.405,235.422L85.588,235.411L85.771,235.399L85.954,235.386L86.137,235.371L86.317,235.356L86.499,235.339L86.681,235.321L86.862,235.302L87.042,235.282L87.222,235.261L87.402,235.239L87.582,235.215L87.761,235.191L87.94,235.165L88.118,235.138L88.296,235.111L88.474,235.082L88.651,235.052L88.828,235.021L89.005,234.989L89.181,234.955L89.357,234.921L89.532,234.886L89.708,234.849L89.883,234.812L90.056,234.773L90.231,234.734L90.405,234.693L90.578,234.651L90.751,234.609L90.923,234.565L91.096,234.52L91.268,234.474L91.439,234.427L91.61,234.379L91.781,234.33L91.951,234.28L92.12,234.229L92.29,234.177L92.459,234.123L92.628,234.069L92.796,234.014L92.964,233.958L93.131,233.901L93.298,233.842L93.465,233.783L93.631,233.723L93.797,233.662L93.962,233.599L94.126,233.536L94.291,233.472L94.455,233.407L94.619,233.34L94.782,233.273L94.944,233.205L95.107,233.136L95.268,233.066L95.429,232.994L95.59,232.922L95.751,232.849L95.911,232.775L96.07,232.7L96.229,232.624L96.388,232.547L96.545,232.469L96.703,232.39L96.86,232.31L97.017,232.23L97.173,232.148L97.328,232.065L97.483,231.982L97.638,231.897L97.792,231.811L97.945,231.725L98.098,231.638L98.251,231.549L98.403,231.46L98.554,231.37L98.705,231.279L98.856,231.187L99.005,231.094L99.155,231L99.303,230.906L99.451,230.81L99.599,230.713L99.746,230.616L99.893,230.518L100.038,230.418L100.183,230.319L100.328,230.217L100.473,230.115L100.616,230.013L100.759,229.909L100.902,229.805L101.043,229.7L101.185,229.593L101.325,229.486L101.465,229.378L101.605,229.269L101.743,229.159L101.881,229.049L102.019,228.937L102.156,228.825L102.292,228.712L102.427,228.598L102.562,228.483L102.697,228.368L102.83,228.251L102.963,228.134L103.095,228.016L103.227,227.897L103.358,227.778L103.488,227.657L103.618,227.536L103.746,227.413L103.875,227.29L104.002,227.167L104.129,227.042L104.255,226.917L104.38,226.791L104.505,226.664L104.629,226.536L104.752,226.407L104.875,226.278L104.996,226.148L105.117,226.017L105.238,225.886L105.357,225.754L105.476,225.621L105.594,225.487L105.711,225.352L105.828,225.217L105.944,225.081L106.059,224.944L106.173,224.806L106.286,224.668L106.399,224.529L106.511,224.39L106.622,224.249L106.732,224.108L106.841,223.966L106.95,223.823L107.058,223.68L107.165,223.536L107.271,223.391L107.377,223.246L107.481,223.1L107.585,222.953L107.688,222.805L107.79,222.657L107.891,222.508L107.991,222.359L108.091,222.209L108.19,222.058L108.287,221.907L108.384,221.754L108.48,221.601L108.575,221.448L108.67,221.294L108.763,221.139L108.856,220.983L108.947,220.827L109.038,220.671L109.128,220.514L109.217,220.356L109.304,220.197L109.392,220.038L109.478,219.878L109.563,219.718L109.647,219.557L109.731,219.396L109.813,219.233L109.895,219.07L109.975,218.907L110.055,218.743L110.134,218.578L110.211,218.413L110.288,218.248L110.364,218.082L110.438,217.915L110.512,217.747L110.585,217.579L110.657,217.411L110.728,217.242L110.798,217.072L110.867,216.902L110.935,216.731L111.002,216.56L111.067,216.389L111.132,216.216L111.196,216.043L111.259,215.87L111.321,215.696L111.382,215.522L111.442,215.347L111.5,215.171L111.558,214.995L111.615,214.819L111.67,214.642L111.725,214.465L111.778,214.287L111.831,214.109L111.882,213.93L111.933,213.75L111.982,213.57L112.03,213.39L112.077,213.21L112.123,213.028L112.168,212.847L112.212,212.665L112.255,212.482L112.296,212.299L112.337,212.115L112.376,211.932L112.415,211.747L112.452,211.562L112.488,211.377L112.523,211.192L112.557,211.006L112.589,210.819L112.621,210.632L112.651,210.445L112.681,210.257L112.709,210.069L112.736,209.881L112.762,209.692L112.786,209.502L112.81,209.312L112.832,209.123L112.853,208.932L112.873,208.741L112.892,208.55L112.91,208.358L112.926,208.166L112.941,207.974L112.956,207.781L112.968,207.588L112.98,207.394L112.99,207.201L113,207.006L113.008,206.812L113.014,206.617L113.02,206.422L113.024,206.226L113.027,206.03L113.029,205.834L113.03,205.638L113.029,205.441L113.027,205.245L113.024,205.049L113.02,204.853L113.014,204.658L113.008,204.464L113,204.269L112.99,204.075L112.98,203.881L112.968,203.687L112.956,203.494L112.941,203.302L112.926,203.109L112.91,202.917L112.892,202.726L112.873,202.534L112.853,202.343L112.832,202.153L112.81,201.963L112.786,201.773L112.762,201.584L112.736,201.395L112.709,201.206L112.681,201.018L112.651,200.831L112.621,200.643L112.589,200.456L112.557,200.27L112.523,200.084L112.488,199.898L112.452,199.713L112.415,199.528L112.376,199.344L112.337,199.16L112.296,198.977L112.255,198.794L112.212,198.611L112.168,198.429L112.123,198.247L112.077,198.066L112.03,197.885L111.982,197.705L111.933,197.525L111.882,197.346L111.831,197.167L111.778,196.989L111.725,196.811L111.67,196.633L111.615,196.457L111.558,196.28L111.5,196.104L111.442,195.929L111.382,195.754L111.321,195.579L111.259,195.406L111.196,195.233L111.132,195.059L111.067,194.887L111.002,194.716L110.935,194.544L110.867,194.373L110.798,194.204L110.728,194.034L110.657,193.865L110.585,193.696L110.512,193.528L110.439,193.361L110.364,193.194L110.288,193.028L110.211,192.862L110.134,192.697L110.055,192.532L109.975,192.368L109.895,192.205L109.813,192.042L109.731,191.88L109.647,191.719L109.563,191.558L109.478,191.397L109.392,191.238L109.304,191.078L109.217,190.92L109.128,190.762L109.038,190.605L108.947,190.448L108.856,190.292L108.763,190.137L108.67,189.982L108.575,189.828L108.48,189.674L108.384,189.522L108.287,189.369L108.19,189.218L108.091,189.067L107.991,188.917L107.891,188.767L107.79,188.619L107.688,188.47L107.585,188.323L107.481,188.176L107.377,188.03L107.271,187.885L107.165,187.74L107.058,187.596L106.95,187.453L106.841,187.31L106.732,187.168L106.622,187.027L106.511,186.886L106.399,186.747L106.286,186.608L106.173,186.47L106.059,186.332L105.944,186.195L105.828,186.059L105.711,185.924L105.594,185.789L105.476,185.655L105.357,185.522L105.238,185.39L105.118,185.259L104.996,185.127L104.875,184.998L104.752,184.868L104.629,184.74L104.505,184.612L104.38,184.485L104.255,184.359L104.129,184.234L104.002,184.11L103.875,183.986L103.746,183.862L103.618,183.74L103.488,183.619L103.358,183.499L103.227,183.379L103.095,183.26L102.963,183.142L102.83,183.024L102.697,182.908L102.562,182.793L102.428,182.678L102.292,182.564L102.156,182.451L102.019,182.339L101.881,182.227L101.743,182.117L101.605,182.007L101.465,181.898L101.325,181.79L101.185,181.683L101.043,181.577L100.902,181.472L100.759,181.367L100.616,181.263L100.473,181.16L100.329,181.059L100.184,180.958L100.038,180.857L99.893,180.758L99.746,180.66L99.599,180.563L99.452,180.466L99.303,180.371L99.155,180.276L99.006,180.182L98.856,180.089L98.705,179.997L98.554,179.906L98.403,179.816L98.251,179.727L98.098,179.638L97.945,179.551L97.792,179.465L97.638,179.379L97.483,179.295L97.328,179.211L97.173,179.128L97.017,179.047L96.86,178.966L96.703,178.886L96.546,178.807L96.387,178.729L96.229,178.652L96.07,178.576L95.911,178.501L95.751,178.427L95.59,178.354L95.429,178.282L95.269,178.211L95.107,178.141L94.944,178.071L94.782,178.003L94.619,177.936L94.455,177.87L94.291,177.804L94.127,177.74L93.962,177.677L93.797,177.615L93.631,177.553L93.465,177.493L93.298,177.434L93.131,177.376L92.964,177.318L92.796,177.262L92.628,177.207L92.459,177.153L92.29,177.1L92.121,177.048L91.95,176.996L91.781,176.946L91.61,176.897L91.439,176.849L91.268,176.802L91.096,176.757L90.923,176.712L90.751,176.668L90.578,176.625L90.405,176.583L90.231,176.543L90.057,176.503L89.883,176.464L89.708,176.427L89.532,176.39L89.357,176.355L89.181,176.321L89.004,176.288L88.828,176.256L88.651,176.225L88.474,176.195L88.296,176.166L88.118,176.138L87.94,176.111L87.761,176.086L87.581,176.061L87.402,176.038L87.223,176.016L87.042,175.994L86.862,175.974L86.681,175.955L86.499,175.937L86.317,175.921L86.137,175.905L85.954,175.891L85.771,175.877L85.588,175.865L85.405,175.854L85.222,175.844L85.038,175.836L84.853,175.828L84.669,175.822L84.484,175.816L84.298,175.812L84.114,175.809L83.928,175.808L83.741,175.807L83.555,175.808Z" style="fill:rgb(248,152,34);"/>
            </g>
            <g transform="matrix(0.887754,0,0,1,20.6954,-0.211446)">
                <path d="M91.009,205.638C91.009,209.654 87.754,212.908 83.74,212.908C79.727,212.908 76.471,209.654 76.471,205.638C76.471,201.623 79.727,198.369 83.74,198.369C87.754,198.369 91.009,201.623 91.009,205.638" style="fill:rgb(248,152,34);fill-rule:nonzero;"/>
            </g>
            <g transform="matrix(0.887754,0,0,1,20.6954,-0.211446)">
                <path d="M106.386,127.354C106.386,139.861 96.248,150 83.741,150C71.233,150 61.094,139.861 61.094,127.354C61.094,114.846 71.233,104.708 83.741,104.708C96.248,104.708 106.386,114.846 106.386,127.354" style="fill:rgb(75,123,190);fill-rule:nonzero;"/>
            </g>
            <g transform="matrix(0.887754,0,0,1,20.6954,-0.211446)">
                <path d="M83.909,102.141L84.075,102.143L84.242,102.145L84.408,102.149L84.575,102.154L84.74,102.16L84.906,102.166L85.071,102.174L85.237,102.183L85.402,102.193L85.566,102.204L85.73,102.216L85.895,102.229L86.058,102.243L86.222,102.258L86.386,102.274L86.549,102.291L86.71,102.309L86.873,102.328L87.035,102.348L87.197,102.369L87.358,102.392L87.52,102.415L87.68,102.439L87.841,102.464L88.001,102.49L88.161,102.517L88.32,102.545L88.479,102.574L88.638,102.604L88.797,102.634L88.954,102.666L89.112,102.699L89.27,102.733L89.427,102.767L89.583,102.803L89.739,102.84L89.895,102.877L90.051,102.916L90.206,102.955L90.36,102.995L90.515,103.036L90.668,103.079L90.822,103.122L90.975,103.166L91.127,103.21L91.279,103.256L91.431,103.303L91.583,103.351L91.734,103.399L91.884,103.449L92.034,103.499L92.184,103.55L92.333,103.602L92.481,103.655L92.63,103.708L92.778,103.763L92.925,103.819L93.072,103.875L93.218,103.932L93.364,103.99L93.51,104.049L93.655,104.109L93.8,104.17L93.943,104.231L94.087,104.293L94.23,104.357L94.373,104.42L94.515,104.485L94.657,104.551L94.798,104.617L94.938,104.684L95.078,104.752L95.218,104.821L95.357,104.891L95.496,104.961L95.634,105.033L95.771,105.105L95.908,105.178L96.045,105.251L96.18,105.325L96.316,105.401L96.451,105.476L96.585,105.553L96.719,105.631L96.852,105.709L96.985,105.788L97.117,105.868L97.248,105.948L97.38,106.029L97.51,106.111L97.64,106.194L97.769,106.277L97.898,106.361L98.026,106.446L98.154,106.532L98.28,106.618L98.407,106.706L98.533,106.793L98.658,106.882L98.783,106.971L98.907,107.061L99.03,107.152L99.153,107.243L99.275,107.335L99.397,107.428L99.518,107.521L99.639,107.615L99.759,107.71L99.878,107.805L99.996,107.902L100.114,107.998L100.232,108.096L100.349,108.194L100.465,108.293L100.58,108.392L100.695,108.492L100.809,108.593L100.923,108.694L101.036,108.797L101.148,108.899L101.26,109.003L101.371,109.107L101.481,109.211L101.591,109.316L101.7,109.422L101.808,109.529L101.916,109.636L102.023,109.744L102.13,109.852L102.235,109.961L102.34,110.07L102.445,110.181L102.549,110.291L102.652,110.403L102.754,110.514L102.856,110.627L102.957,110.74L103.057,110.854L103.157,110.968L103.255,111.083L103.353,111.198L103.451,111.315L103.548,111.431L103.644,111.548L103.739,111.666L103.834,111.784L103.928,111.903L104.021,112.022L104.114,112.142L104.206,112.263L104.296,112.384L104.387,112.505L104.477,112.628L104.565,112.75L104.653,112.873L104.741,112.997L104.828,113.121L104.913,113.246L104.999,113.371L105.083,113.497L105.167,113.623L105.25,113.75L105.332,113.878L105.413,114.005L105.494,114.134L105.574,114.262L105.653,114.392L105.731,114.522L105.809,114.652L105.885,114.783L105.961,114.914L106.037,115.046L106.111,115.178L106.185,115.31L106.258,115.444L106.33,115.577L106.401,115.711L106.471,115.846L106.541,115.981L106.61,116.116L106.678,116.253L106.745,116.389L106.812,116.526L106.877,116.663L106.942,116.801L107.006,116.939L107.069,117.077L107.132,117.216L107.193,117.356L107.254,117.496L107.314,117.636L107.373,117.777L107.431,117.918L107.488,118.059L107.545,118.201L107.6,118.344L107.655,118.486L107.709,118.63L107.762,118.773L107.814,118.917L107.866,119.062L107.916,119.206L107.966,119.351L108.014,119.497L108.062,119.643L108.109,119.789L108.155,119.936L108.201,120.083L108.245,120.23L108.288,120.378L108.331,120.526L108.373,120.675L108.413,120.823L108.453,120.972L108.492,121.122L108.53,121.272L108.567,121.422L108.604,121.573L108.639,121.724L108.673,121.875L108.707,122.026L108.739,122.178L108.771,122.33L108.802,122.483L108.832,122.636L108.86,122.789L108.888,122.943L108.915,123.096L108.941,123.25L108.966,123.405L108.991,123.56L109.014,123.714L109.036,123.87L109.057,124.025L109.078,124.181L109.097,124.337L109.115,124.494L109.133,124.651L109.149,124.807L109.165,124.965L109.179,125.122L109.193,125.28L109.205,125.438L109.217,125.596L109.227,125.755L109.237,125.914L109.245,126.073L109.253,126.232L109.259,126.391L109.265,126.551L109.27,126.711L109.273,126.871L109.276,127.032L109.277,127.193L109.278,127.353L109.277,127.514L109.276,127.675L109.273,127.835L109.27,127.996L109.265,128.156L109.259,128.315L109.253,128.475L109.245,128.634L109.237,128.793L109.227,128.952L109.217,129.111L109.205,129.269L109.193,129.427L109.179,129.585L109.165,129.742L109.149,129.899L109.133,130.056L109.115,130.213L109.097,130.37L109.078,130.526L109.057,130.681L109.036,130.837L109.014,130.992L108.991,131.147L108.966,131.302L108.941,131.456L108.915,131.611L108.888,131.764L108.86,131.918L108.832,132.071L108.802,132.224L108.771,132.376L108.739,132.528L108.707,132.68L108.673,132.832L108.639,132.983L108.604,133.134L108.567,133.285L108.53,133.435L108.492,133.585L108.453,133.734L108.413,133.883L108.373,134.032L108.331,134.181L108.288,134.329L108.245,134.477L108.201,134.624L108.155,134.771L108.109,134.918L108.062,135.064L108.014,135.21L107.966,135.355L107.916,135.5L107.866,135.645L107.814,135.789L107.762,135.933L107.709,136.077L107.655,136.22L107.6,136.363L107.545,136.505L107.488,136.647L107.431,136.789L107.373,136.93L107.314,137.071L107.254,137.211L107.193,137.351L107.132,137.49L107.069,137.629L107.006,137.768L106.942,137.906L106.877,138.044L106.812,138.181L106.745,138.318L106.678,138.454L106.61,138.59L106.541,138.725L106.471,138.861L106.401,138.995L106.33,139.129L106.258,139.263L106.185,139.396L106.111,139.529L106.037,139.661L105.961,139.793L105.886,139.924L105.809,140.055L105.731,140.185L105.653,140.315L105.574,140.444L105.494,140.573L105.413,140.701L105.332,140.829L105.25,140.956L105.167,141.083L105.083,141.209L104.999,141.335L104.913,141.461L104.828,141.585L104.741,141.71L104.654,141.833L104.565,141.956L104.477,142.079L104.387,142.201L104.296,142.323L104.206,142.444L104.114,142.564L104.021,142.684L103.928,142.803L103.834,142.922L103.739,143.041L103.644,143.158L103.548,143.276L103.451,143.392L103.354,143.508L103.255,143.624L103.157,143.738L103.057,143.853L102.957,143.966L102.856,144.079L102.754,144.192L102.652,144.304L102.549,144.415L102.445,144.526L102.341,144.636L102.235,144.746L102.13,144.855L102.023,144.963L101.916,145.071L101.809,145.178L101.7,145.284L101.591,145.39L101.481,145.495L101.371,145.6L101.26,145.704L101.148,145.807L101.036,145.91L100.923,146.012L100.809,146.114L100.695,146.214L100.58,146.314L100.465,146.414L100.349,146.513L100.232,146.611L100.114,146.708L99.996,146.805L99.878,146.901L99.759,146.997L99.639,147.091L99.518,147.185L99.397,147.279L99.275,147.372L99.153,147.464L99.03,147.555L98.907,147.646L98.783,147.736L98.658,147.825L98.533,147.913L98.407,148.001L98.28,148.088L98.154,148.175L98.026,148.26L97.898,148.345L97.769,148.429L97.64,148.513L97.51,148.596L97.38,148.677L97.248,148.759L97.117,148.839L96.985,148.919L96.852,148.998L96.719,149.076L96.585,149.154L96.451,149.23L96.316,149.306L96.181,149.381L96.045,149.456L95.908,149.529L95.771,149.602L95.634,149.674L95.495,149.746L95.357,149.816L95.218,149.885L95.078,149.954L94.938,150.022L94.798,150.089L94.657,150.156L94.515,150.222L94.373,150.286L94.23,150.35L94.087,150.414L93.944,150.476L93.8,150.537L93.655,150.598L93.51,150.658L93.364,150.717L93.219,150.775L93.072,150.832L92.925,150.888L92.778,150.944L92.63,150.998L92.482,151.052L92.333,151.105L92.184,151.157L92.034,151.208L91.884,151.258L91.734,151.308L91.583,151.356L91.432,151.404L91.28,151.451L91.127,151.496L90.975,151.541L90.822,151.585L90.668,151.628L90.515,151.67L90.361,151.712L90.206,151.752L90.05,151.791L89.895,151.83L89.739,151.867L89.583,151.904L89.427,151.94L89.27,151.974L89.112,152.008L88.954,152.041L88.797,152.073L88.638,152.103L88.479,152.133L88.32,152.162L88.161,152.19L88.001,152.217L87.841,152.243L87.68,152.268L87.52,152.292L87.358,152.315L87.197,152.337L87.035,152.359L86.873,152.379L86.711,152.398L86.548,152.416L86.385,152.433L86.222,152.449L86.059,152.464L85.894,152.478L85.73,152.491L85.566,152.503L85.402,152.514L85.237,152.524L85.071,152.533L84.906,152.541L84.74,152.547L84.574,152.553L84.408,152.558L84.242,152.562L84.075,152.564L83.908,152.566L83.741,152.566L83.574,152.566L83.407,152.564L83.24,152.562L83.074,152.558L82.908,152.553L82.742,152.547L82.577,152.541L82.411,152.533L82.246,152.524L82.081,152.514L81.916,152.503L81.752,152.491L81.588,152.478L81.423,152.464L81.26,152.449L81.097,152.433L80.934,152.416L80.771,152.398L80.609,152.379L80.447,152.359L80.285,152.337L80.124,152.315L79.963,152.292L79.802,152.268L79.641,152.243L79.481,152.217L79.321,152.19L79.162,152.162L79.003,152.133L78.844,152.103L78.686,152.073L78.528,152.041L78.37,152.008L78.213,151.974L78.056,151.94L77.899,151.904L77.743,151.867L77.587,151.83L77.432,151.791L77.276,151.752L77.121,151.712L76.967,151.67L76.814,151.628L76.66,151.585L76.507,151.541L76.355,151.496L76.202,151.451L76.05,151.404L75.899,151.356L75.748,151.308L75.598,151.258L75.448,151.208L75.298,151.157L75.149,151.105L75,151.052L74.852,150.998L74.704,150.944L74.557,150.888L74.41,150.832L74.263,150.775L74.117,150.717L73.972,150.658L73.827,150.598L73.682,150.537L73.538,150.476L73.395,150.414L73.252,150.35L73.109,150.286L72.967,150.222L72.825,150.156L72.684,150.09L72.543,150.022L72.403,149.954L72.263,149.885L72.125,149.816L71.986,149.746L71.848,149.674L71.71,149.602L71.574,149.529L71.437,149.456L71.301,149.381L71.166,149.306L71.031,149.23L70.896,149.154L70.762,149.076L70.629,148.998L70.497,148.919L70.365,148.839L70.233,148.759L70.102,148.678L69.972,148.596L69.842,148.513L69.712,148.429L69.584,148.345L69.455,148.26L69.328,148.175L69.201,148.088L69.075,148.001L68.949,147.913L68.823,147.825L68.699,147.736L68.574,147.646L68.451,147.555L68.328,147.464L68.206,147.372L68.084,147.279L67.963,147.185L67.843,147.092L67.723,146.997L67.603,146.901L67.485,146.805L67.367,146.708L67.249,146.611L67.133,146.513L67.016,146.414L66.901,146.314L66.786,146.214L66.672,146.114L66.558,146.012L66.445,145.91L66.333,145.807L66.221,145.704L66.11,145.6L66,145.496L65.89,145.39L65.781,145.284L65.673,145.178L65.565,145.071L65.458,144.963L65.351,144.855L65.246,144.746L65.14,144.636L65.036,144.526L64.933,144.415L64.829,144.304L64.727,144.192L64.625,144.079L64.525,143.967L64.424,143.853L64.325,143.738L64.226,143.624L64.127,143.508L64.03,143.392L63.933,143.276L63.837,143.159L63.742,143.041L63.647,142.922L63.553,142.803L63.46,142.684L63.367,142.564L63.275,142.444L63.184,142.323L63.094,142.201L63.004,142.079L62.916,141.957L62.827,141.833L62.74,141.71L62.653,141.585L62.567,141.461L62.482,141.335L62.398,141.21L62.314,141.083L62.231,140.956L62.149,140.829L62.068,140.701L61.987,140.573L61.907,140.444L61.828,140.315L61.75,140.185L61.672,140.055L61.595,139.924L61.519,139.793L61.444,139.661L61.37,139.529L61.296,139.396L61.223,139.263L61.151,139.129L61.08,138.995L61.009,138.861L60.94,138.726L60.871,138.59L60.803,138.454L60.735,138.318L60.669,138.181L60.603,138.044L60.539,137.906L60.474,137.768L60.411,137.629L60.349,137.49L60.287,137.351L60.227,137.211L60.167,137.071L60.108,136.93L60.05,136.789L59.992,136.647L59.936,136.505L59.88,136.363L59.826,136.22L59.772,136.077L59.718,135.933L59.666,135.79L59.615,135.645L59.564,135.5L59.515,135.355L59.466,135.21L59.418,135.064L59.371,134.918L59.325,134.771L59.28,134.624L59.236,134.477L59.192,134.329L59.15,134.181L59.108,134.032L59.067,133.883L59.027,133.734L58.988,133.585L58.95,133.435L58.913,133.285L58.877,133.134L58.841,132.983L58.807,132.832L58.774,132.68L58.741,132.528L58.709,132.376L58.679,132.224L58.649,132.071L58.62,131.918L58.592,131.764L58.565,131.611L58.539,131.456L58.514,131.302L58.49,131.147L58.467,130.992L58.444,130.837L58.423,130.682L58.403,130.526L58.384,130.37L58.365,130.213L58.348,130.056L58.331,129.899L58.316,129.742L58.301,129.585L58.288,129.427L58.275,129.269L58.264,129.111L58.253,128.952L58.244,128.793L58.235,128.634L58.228,128.475L58.221,128.315L58.215,128.156L58.211,127.996L58.207,127.835L58.205,127.675L58.203,127.514L58.203,127.353L58.203,127.193L58.205,127.032L58.207,126.871L58.211,126.711L58.215,126.551L58.221,126.391L58.228,126.232L58.235,126.073L58.244,125.914L58.253,125.755L58.264,125.596L58.275,125.438L58.288,125.28L58.301,125.122L58.316,124.965L58.331,124.807L58.348,124.651L58.365,124.494L58.384,124.337L58.403,124.181L58.423,124.025L58.444,123.87L58.467,123.715L58.49,123.559L58.514,123.405L58.539,123.25L58.565,123.096L58.592,122.943L58.62,122.789L58.649,122.636L58.679,122.483L58.709,122.33L58.741,122.178L58.774,122.026L58.807,121.875L58.841,121.724L58.877,121.573L58.913,121.422L58.95,121.272L58.988,121.122L59.027,120.972L59.067,120.823L59.108,120.674L59.15,120.526L59.192,120.378L59.236,120.23L59.28,120.083L59.325,119.936L59.371,119.789L59.418,119.643L59.466,119.497L59.515,119.351L59.564,119.206L59.615,119.061L59.666,118.917L59.718,118.773L59.772,118.63L59.826,118.486L59.88,118.344L59.936,118.201L59.992,118.059L60.05,117.918L60.108,117.777L60.167,117.636L60.227,117.496L60.287,117.356L60.349,117.216L60.411,117.077L60.475,116.939L60.539,116.8L60.603,116.663L60.669,116.526L60.735,116.389L60.803,116.252L60.871,116.116L60.94,115.981L61.009,115.846L61.08,115.711L61.151,115.577L61.223,115.444L61.296,115.31L61.37,115.178L61.444,115.045L61.519,114.914L61.595,114.783L61.672,114.652L61.75,114.521L61.828,114.392L61.907,114.262L61.987,114.134L62.068,114.005L62.149,113.877L62.231,113.75L62.314,113.623L62.398,113.497L62.482,113.371L62.567,113.246L62.653,113.121L62.74,112.997L62.827,112.873L62.915,112.75L63.004,112.627L63.094,112.505L63.184,112.384L63.275,112.263L63.367,112.142L63.46,112.022L63.553,111.903L63.647,111.784L63.742,111.666L63.837,111.548L63.933,111.431L64.03,111.315L64.128,111.198L64.226,111.083L64.325,110.968L64.424,110.854L64.524,110.74L64.625,110.627L64.727,110.514L64.829,110.403L64.933,110.291L65.036,110.181L65.141,110.07L65.246,109.961L65.351,109.852L65.458,109.744L65.565,109.636L65.673,109.529L65.781,109.422L65.89,109.316L66,109.211L66.11,109.107L66.221,109.003L66.333,108.899L66.445,108.797L66.558,108.694L66.672,108.593L66.786,108.492L66.901,108.392L67.016,108.293L67.133,108.194L67.25,108.096L67.367,107.998L67.485,107.902L67.603,107.805L67.723,107.71L67.843,107.615L67.963,107.521L68.084,107.428L68.206,107.335L68.328,107.243L68.451,107.152L68.575,107.061L68.699,106.971L68.823,106.882L68.948,106.793L69.075,106.705L69.201,106.618L69.328,106.532L69.456,106.446L69.584,106.361L69.712,106.277L69.842,106.194L69.972,106.111L70.102,106.029L70.233,105.948L70.365,105.868L70.497,105.788L70.629,105.709L70.763,105.631L70.897,105.553L71.031,105.476L71.166,105.4L71.301,105.325L71.437,105.251L71.573,105.177L71.711,105.105L71.848,105.033L71.986,104.961L72.125,104.891L72.264,104.821L72.403,104.752L72.543,104.684L72.684,104.617L72.825,104.551L72.967,104.485L73.109,104.42L73.251,104.357L73.395,104.293L73.538,104.231L73.682,104.17L73.827,104.109L73.972,104.049L74.117,103.99L74.263,103.932L74.41,103.875L74.557,103.819L74.704,103.763L74.852,103.708L75,103.655L75.149,103.602L75.298,103.55L75.448,103.499L75.598,103.448L75.748,103.399L75.899,103.351L76.051,103.303L76.202,103.256L76.355,103.21L76.507,103.166L76.66,103.122L76.814,103.079L76.967,103.036L77.122,102.995L77.276,102.955L77.431,102.916L77.587,102.877L77.743,102.84L77.899,102.803L78.056,102.767L78.213,102.733L78.37,102.699L78.528,102.666L78.686,102.634L78.844,102.604L79.003,102.574L79.162,102.545L79.321,102.517L79.481,102.49L79.641,102.464L79.802,102.439L79.963,102.415L80.124,102.392L80.285,102.369L80.447,102.348L80.609,102.328L80.772,102.309L80.934,102.291L81.097,102.274L81.26,102.258L81.424,102.243L81.588,102.229L81.752,102.216L81.916,102.204L82.081,102.193L82.246,102.183L82.411,102.174L82.577,102.166L82.742,102.16L82.908,102.154L83.074,102.149L83.241,102.145L83.407,102.143L83.574,102.141L83.741,102.141L83.909,102.141ZM83.616,107.275L83.489,107.276L83.364,107.278L83.239,107.281L83.114,107.284L82.989,107.289L82.865,107.294L82.74,107.3L82.617,107.306L82.493,107.314L82.369,107.322L82.245,107.331L82.122,107.341L81.999,107.351L81.877,107.363L81.754,107.375L81.632,107.387L81.51,107.401L81.388,107.415L81.267,107.43L81.145,107.446L81.024,107.463L80.903,107.48L80.783,107.498L80.662,107.517L80.542,107.536L80.422,107.557L80.302,107.578L80.183,107.599L80.064,107.622L79.945,107.645L79.826,107.669L79.708,107.694L79.59,107.719L79.472,107.745L79.354,107.772L79.236,107.799L79.119,107.827L79.003,107.856L78.886,107.886L78.77,107.916L78.654,107.947L78.537,107.979L78.422,108.011L78.307,108.045L78.192,108.078L78.077,108.113L77.962,108.148L77.848,108.184L77.734,108.221L77.621,108.258L77.507,108.296L77.394,108.335L77.281,108.374L77.169,108.414L77.056,108.455L76.945,108.496L76.833,108.538L76.722,108.581L76.611,108.624L76.5,108.668L76.389,108.713L76.279,108.758L76.169,108.804L76.06,108.851L75.95,108.899L75.842,108.946L75.733,108.995L75.625,109.045L75.517,109.095L75.409,109.145L75.302,109.197L75.195,109.249L75.088,109.301L74.982,109.354L74.876,109.408L74.77,109.463L74.665,109.518L74.56,109.574L74.455,109.63L74.351,109.687L74.247,109.745L74.143,109.803L74.04,109.862L73.937,109.922L73.835,109.982L73.733,110.043L73.631,110.104L73.529,110.166L73.428,110.229L73.328,110.292L73.227,110.356L73.127,110.421L73.028,110.486L72.929,110.551L72.83,110.618L72.731,110.685L72.633,110.752L72.536,110.82L72.439,110.889L72.342,110.958L72.245,111.028L72.149,111.098L72.054,111.169L71.959,111.241L71.864,111.313L71.769,111.386L71.676,111.459L71.582,111.533L71.489,111.608L71.396,111.683L71.304,111.759L71.212,111.835L71.121,111.912L71.03,111.989L70.939,112.067L70.849,112.145L70.76,112.224L70.671,112.304L70.582,112.384L70.494,112.464L70.406,112.546L70.319,112.627L70.232,112.71L70.146,112.793L70.06,112.876L69.974,112.96L69.889,113.044L69.805,113.129L69.721,113.215L69.638,113.301L69.555,113.387L69.472,113.474L69.39,113.562L69.309,113.65L69.228,113.738L69.147,113.827L69.067,113.917L68.988,114.007L68.909,114.098L68.83,114.189L68.752,114.281L68.675,114.373L68.598,114.465L68.522,114.558L68.446,114.652L68.37,114.746L68.296,114.84L68.222,114.935L68.148,115.031L68.075,115.127L68.002,115.224L67.93,115.321L67.859,115.418L67.788,115.515L67.717,115.614L67.647,115.713L67.578,115.812L67.51,115.912L67.442,116.012L67.374,116.112L67.307,116.213L67.241,116.315L67.175,116.417L67.11,116.519L67.045,116.622L66.981,116.725L66.918,116.829L66.855,116.933L66.793,117.038L66.731,117.143L66.67,117.248L66.609,117.354L66.55,117.46L66.491,117.567L66.432,117.674L66.374,117.781L66.317,117.889L66.26,117.997L66.204,118.106L66.148,118.215L66.094,118.324L66.039,118.434L65.986,118.545L65.933,118.655L65.881,118.767L65.829,118.878L65.778,118.989L65.728,119.102L65.678,119.214L65.629,119.327L65.581,119.441L65.533,119.554L65.486,119.668L65.44,119.783L65.394,119.897L65.349,120.013L65.305,120.128L65.261,120.244L65.218,120.36L65.176,120.477L65.134,120.594L65.094,120.711L65.053,120.828L65.014,120.946L64.975,121.065L64.937,121.183L64.9,121.302L64.863,121.421L64.827,121.541L64.792,121.661L64.757,121.781L64.723,121.902L64.69,122.023L64.658,122.144L64.626,122.265L64.595,122.387L64.565,122.509L64.535,122.632L64.507,122.754L64.479,122.877L64.451,123.001L64.425,123.124L64.399,123.248L64.374,123.372L64.35,123.497L64.326,123.621L64.304,123.746L64.282,123.872L64.261,123.998L64.24,124.123L64.22,124.25L64.201,124.376L64.183,124.503L64.166,124.63L64.149,124.757L64.134,124.884L64.119,125.012L64.104,125.14L64.091,125.268L64.078,125.397L64.066,125.526L64.055,125.655L64.045,125.784L64.036,125.914L64.027,126.043L64.019,126.173L64.012,126.303L64.006,126.434L64.001,126.565L63.996,126.696L63.992,126.827L63.989,126.958L63.987,127.09L63.986,127.221L63.986,127.353L63.986,127.486L63.987,127.617L63.989,127.749L63.992,127.88L63.996,128.011L64.001,128.142L64.006,128.273L64.012,128.404L64.019,128.534L64.027,128.664L64.036,128.793L64.045,128.923L64.055,129.052L64.066,129.181L64.078,129.31L64.091,129.438L64.104,129.567L64.119,129.695L64.134,129.822L64.149,129.95L64.166,130.077L64.183,130.204L64.201,130.331L64.22,130.457L64.24,130.583L64.261,130.709L64.282,130.835L64.304,130.96L64.326,131.085L64.35,131.21L64.374,131.334L64.399,131.459L64.425,131.583L64.451,131.706L64.479,131.83L64.507,131.952L64.535,132.075L64.565,132.198L64.595,132.32L64.626,132.442L64.658,132.563L64.69,132.684L64.723,132.805L64.757,132.926L64.792,133.046L64.827,133.166L64.863,133.285L64.9,133.404L64.937,133.523L64.975,133.642L65.014,133.76L65.053,133.878L65.094,133.996L65.134,134.113L65.176,134.23L65.218,134.346L65.261,134.463L65.305,134.578L65.349,134.694L65.394,134.809L65.44,134.924L65.486,135.038L65.533,135.152L65.581,135.266L65.629,135.379L65.678,135.492L65.728,135.605L65.778,135.717L65.829,135.829L65.881,135.94L65.933,136.051L65.986,136.162L66.039,136.272L66.094,136.382L66.148,136.491L66.204,136.601L66.26,136.709L66.317,136.818L66.374,136.925L66.432,137.033L66.491,137.14L66.55,137.247L66.609,137.353L66.67,137.458L66.731,137.564L66.793,137.669L66.855,137.773L66.918,137.878L66.981,137.981L67.045,138.085L67.11,138.187L67.175,138.29L67.241,138.392L67.307,138.493L67.374,138.594L67.442,138.695L67.51,138.795L67.578,138.895L67.647,138.994L67.717,139.093L67.788,139.191L67.859,139.289L67.93,139.386L68.002,139.483L68.075,139.58L68.148,139.676L68.222,139.771L68.296,139.866L68.37,139.961L68.446,140.055L68.522,140.148L68.598,140.241L68.675,140.334L68.752,140.426L68.83,140.518L68.909,140.609L68.988,140.7L69.067,140.789L69.147,140.879L69.228,140.968L69.309,141.057L69.39,141.145L69.472,141.232L69.555,141.32L69.638,141.406L69.721,141.492L69.805,141.578L69.89,141.662L69.974,141.747L70.06,141.831L70.146,141.914L70.232,141.997L70.319,142.079L70.406,142.161L70.494,142.242L70.582,142.323L70.671,142.403L70.76,142.482L70.849,142.561L70.94,142.64L71.03,142.718L71.121,142.795L71.212,142.872L71.304,142.948L71.396,143.024L71.489,143.099L71.582,143.173L71.676,143.247L71.77,143.321L71.864,143.394L71.959,143.466L72.054,143.537L72.149,143.608L72.246,143.679L72.342,143.749L72.439,143.818L72.536,143.887L72.633,143.955L72.731,144.022L72.83,144.089L72.929,144.156L73.028,144.221L73.127,144.286L73.227,144.351L73.328,144.415L73.428,144.478L73.529,144.54L73.631,144.603L73.733,144.664L73.835,144.725L73.938,144.785L74.04,144.845L74.143,144.903L74.247,144.962L74.351,145.02L74.455,145.077L74.56,145.133L74.665,145.189L74.77,145.244L74.876,145.299L74.982,145.352L75.088,145.406L75.195,145.458L75.302,145.51L75.409,145.562L75.517,145.612L75.625,145.662L75.733,145.712L75.841,145.76L75.95,145.808L76.06,145.856L76.169,145.902L76.279,145.949L76.389,145.994L76.5,146.039L76.611,146.083L76.722,146.126L76.833,146.169L76.945,146.211L77.057,146.252L77.169,146.293L77.281,146.333L77.394,146.372L77.507,146.411L77.621,146.449L77.734,146.486L77.848,146.523L77.963,146.559L78.077,146.594L78.192,146.629L78.307,146.662L78.422,146.695L78.537,146.728L78.654,146.76L78.77,146.791L78.886,146.821L79.002,146.851L79.12,146.88L79.237,146.908L79.354,146.935L79.472,146.962L79.59,146.988L79.708,147.013L79.826,147.038L79.945,147.062L80.064,147.085L80.183,147.108L80.302,147.129L80.422,147.15L80.542,147.171L80.662,147.19L80.783,147.209L80.903,147.227L81.024,147.244L81.146,147.261L81.267,147.277L81.388,147.292L81.51,147.306L81.632,147.319L81.754,147.332L81.877,147.344L82,147.356L82.122,147.366L82.245,147.376L82.369,147.385L82.493,147.393L82.617,147.401L82.74,147.407L82.865,147.413L82.989,147.418L83.114,147.423L83.239,147.426L83.364,147.429L83.489,147.431L83.615,147.432L83.741,147.433L83.867,147.432L83.993,147.431L84.118,147.429L84.243,147.426L84.368,147.423L84.493,147.418L84.618,147.413L84.742,147.407L84.866,147.401L84.99,147.393L85.113,147.385L85.237,147.376L85.36,147.366L85.482,147.356L85.605,147.344L85.728,147.332L85.85,147.319L85.972,147.306L86.094,147.292L86.216,147.277L86.337,147.261L86.458,147.244L86.579,147.227L86.699,147.209L86.82,147.19L86.94,147.171L87.06,147.15L87.18,147.129L87.299,147.108L87.418,147.085L87.537,147.062L87.656,147.038L87.774,147.013L87.892,146.988L88.01,146.962L88.128,146.935L88.245,146.908L88.362,146.88L88.479,146.851L88.596,146.821L88.712,146.791L88.828,146.76L88.944,146.728L89.06,146.696L89.175,146.662L89.29,146.629L89.405,146.594L89.519,146.559L89.633,146.523L89.747,146.486L89.861,146.449L89.974,146.411L90.088,146.372L90.2,146.333L90.313,146.293L90.425,146.252L90.537,146.211L90.649,146.169L90.76,146.126L90.871,146.083L90.982,146.039L91.092,145.994L91.202,145.949L91.312,145.902L91.422,145.856L91.531,145.808L91.64,145.76L91.748,145.712L91.857,145.662L91.965,145.612L92.072,145.562L92.18,145.51L92.287,145.458L92.393,145.406L92.5,145.352L92.606,145.299L92.711,145.244L92.816,145.189L92.922,145.133L93.026,145.077L93.13,145.02L93.234,144.962L93.338,144.904L93.441,144.845L93.544,144.785L93.647,144.725L93.749,144.664L93.85,144.603L93.952,144.541L94.053,144.478L94.154,144.415L94.254,144.351L94.354,144.286L94.453,144.221L94.552,144.156L94.651,144.089L94.75,144.022L94.848,143.955L94.945,143.887L95.043,143.818L95.139,143.749L95.236,143.679L95.332,143.609L95.427,143.537L95.523,143.466L95.617,143.394L95.711,143.321L95.806,143.247L95.899,143.174L95.992,143.099L96.085,143.024L96.177,142.948L96.269,142.872L96.36,142.795L96.451,142.718L96.541,142.64L96.632,142.562L96.721,142.482L96.81,142.403L96.899,142.323L96.987,142.242L97.075,142.161L97.162,142.079L97.249,141.997L97.335,141.914L97.421,141.831L97.506,141.747L97.591,141.663L97.676,141.578L97.76,141.492L97.843,141.406L97.926,141.32L98.009,141.233L98.091,141.145L98.172,141.057L98.253,140.968L98.334,140.879L98.414,140.789L98.493,140.7L98.572,140.609L98.651,140.518L98.728,140.426L98.806,140.334L98.883,140.241L98.959,140.148L99.035,140.055L99.11,139.961L99.185,139.866L99.259,139.771L99.333,139.676L99.406,139.58L99.479,139.483L99.551,139.386L99.622,139.289L99.693,139.191L99.763,139.093L99.833,138.994L99.902,138.895L99.971,138.795L100.039,138.695L100.107,138.594L100.174,138.493L100.24,138.392L100.306,138.29L100.371,138.187L100.436,138.085L100.5,137.981L100.563,137.878L100.626,137.774L100.688,137.669L100.75,137.564L100.811,137.459L100.871,137.353L100.931,137.247L100.99,137.14L101.049,137.033L101.107,136.926L101.164,136.818L101.221,136.709L101.277,136.601L101.332,136.491L101.387,136.382L101.441,136.272L101.495,136.162L101.548,136.051L101.6,135.94L101.651,135.829L101.702,135.717L101.753,135.605L101.802,135.492L101.851,135.379L101.9,135.266L101.947,135.152L101.994,135.038L102.041,134.924L102.086,134.809L102.131,134.694L102.176,134.579L102.219,134.463L102.262,134.346L102.305,134.23L102.346,134.113L102.387,133.996L102.427,133.878L102.467,133.76L102.506,133.642L102.544,133.523L102.581,133.405L102.618,133.285L102.654,133.166L102.689,133.046L102.723,132.926L102.757,132.805L102.79,132.684L102.823,132.563L102.854,132.442L102.885,132.32L102.916,132.198L102.945,132.075L102.974,131.953L103.002,131.83L103.029,131.706L103.055,131.583L103.081,131.459L103.106,131.335L103.13,131.21L103.154,131.085L103.177,130.96L103.199,130.835L103.22,130.709L103.24,130.583L103.26,130.457L103.279,130.331L103.297,130.204L103.314,130.077L103.331,129.95L103.347,129.822L103.362,129.695L103.376,129.567L103.389,129.438L103.402,129.31L103.414,129.181L103.425,129.052L103.435,128.923L103.445,128.793L103.453,128.664L103.461,128.534L103.468,128.404L103.474,128.273L103.48,128.142L103.484,128.011L103.488,127.88L103.491,127.749L103.493,127.617L103.494,127.486L103.495,127.353L103.494,127.221L103.493,127.09L103.491,126.958L103.488,126.827L103.484,126.695L103.48,126.565L103.474,126.434L103.468,126.303L103.461,126.173L103.453,126.043L103.445,125.914L103.435,125.784L103.425,125.655L103.414,125.526L103.402,125.397L103.389,125.268L103.376,125.14L103.362,125.012L103.347,124.884L103.331,124.757L103.314,124.63L103.297,124.503L103.279,124.376L103.26,124.25L103.24,124.123L103.22,123.998L103.199,123.872L103.177,123.746L103.154,123.621L103.13,123.497L103.106,123.372L103.081,123.248L103.055,123.124L103.029,123.001L103.002,122.877L102.974,122.754L102.945,122.632L102.916,122.509L102.885,122.387L102.854,122.265L102.823,122.144L102.79,122.022L102.757,121.902L102.723,121.781L102.689,121.661L102.654,121.541L102.618,121.421L102.581,121.302L102.544,121.183L102.506,121.065L102.467,120.946L102.427,120.828L102.387,120.711L102.346,120.593L102.305,120.477L102.262,120.36L102.219,120.244L102.176,120.128L102.131,120.013L102.086,119.897L102.041,119.783L101.994,119.668L101.947,119.554L101.9,119.441L101.851,119.327L101.802,119.214L101.753,119.102L101.702,118.989L101.652,118.878L101.6,118.766L101.548,118.655L101.495,118.545L101.441,118.434L101.387,118.324L101.332,118.215L101.277,118.106L101.221,117.997L101.164,117.889L101.107,117.781L101.049,117.674L100.99,117.567L100.931,117.46L100.871,117.354L100.811,117.248L100.75,117.143L100.688,117.037L100.626,116.933L100.563,116.829L100.5,116.725L100.436,116.622L100.371,116.519L100.306,116.417L100.24,116.315L100.174,116.213L100.107,116.112L100.039,116.012L99.971,115.912L99.902,115.812L99.833,115.713L99.763,115.614L99.693,115.515L99.622,115.418L99.551,115.32L99.479,115.224L99.406,115.127L99.333,115.031L99.259,114.935L99.185,114.84L99.11,114.746L99.035,114.652L98.959,114.558L98.883,114.465L98.806,114.372L98.729,114.281L98.651,114.189L98.572,114.098L98.493,114.007L98.414,113.917L98.334,113.827L98.253,113.738L98.172,113.65L98.091,113.562L98.009,113.474L97.926,113.387L97.843,113.301L97.76,113.214L97.676,113.129L97.592,113.044L97.507,112.96L97.421,112.876L97.335,112.792L97.249,112.71L97.162,112.627L97.075,112.546L96.987,112.464L96.899,112.384L96.81,112.304L96.721,112.224L96.632,112.145L96.542,112.067L96.451,111.989L96.36,111.911L96.269,111.835L96.177,111.758L96.085,111.683L95.992,111.608L95.899,111.533L95.806,111.459L95.712,111.386L95.617,111.313L95.523,111.241L95.427,111.169L95.332,111.098L95.236,111.028L95.14,110.958L95.043,110.889L94.945,110.82L94.848,110.752L94.75,110.684L94.651,110.617L94.553,110.551L94.454,110.486L94.354,110.42L94.254,110.356L94.154,110.292L94.053,110.229L93.952,110.166L93.85,110.104L93.749,110.043L93.647,109.982L93.544,109.922L93.441,109.862L93.338,109.803L93.234,109.745L93.131,109.687L93.026,109.63L92.921,109.574L92.817,109.518L92.711,109.463L92.605,109.408L92.5,109.354L92.393,109.301L92.287,109.249L92.18,109.197L92.072,109.145L91.965,109.095L91.857,109.045L91.749,108.995L91.64,108.946L91.531,108.899L91.422,108.851L91.312,108.804L91.203,108.758L91.092,108.713L90.982,108.668L90.871,108.624L90.76,108.581L90.649,108.538L90.537,108.496L90.425,108.455L90.313,108.414L90.2,108.374L90.088,108.335L89.974,108.296L89.861,108.258L89.747,108.221L89.633,108.184L89.519,108.148L89.405,108.113L89.29,108.078L89.175,108.045L89.06,108.011L88.944,107.979L88.828,107.947L88.712,107.916L88.596,107.886L88.479,107.856L88.362,107.827L88.245,107.799L88.128,107.772L88.01,107.745L87.892,107.719L87.774,107.693L87.656,107.669L87.537,107.645L87.418,107.622L87.299,107.599L87.18,107.578L87.06,107.557L86.94,107.536L86.82,107.517L86.699,107.498L86.579,107.48L86.458,107.463L86.337,107.446L86.216,107.43L86.094,107.415L85.973,107.401L85.85,107.387L85.728,107.375L85.606,107.363L85.483,107.351L85.36,107.341L85.237,107.331L85.114,107.322L84.99,107.314L84.866,107.306L84.742,107.3L84.618,107.294L84.493,107.289L84.368,107.284L84.243,107.281L84.118,107.278L83.993,107.276L83.867,107.275L83.741,107.274L83.616,107.275Z" style="fill:rgb(248,152,34);"/>
            </g>
            <g transform="matrix(0.887754,0,0,1,20.6954,-0.211446)">
                <path d="M88.567,127.354C88.567,130.02 86.406,132.18 83.742,132.18C81.076,132.18 78.915,130.02 78.915,127.354C78.915,124.689 81.076,122.528 83.742,122.528C86.406,122.528 88.567,124.689 88.567,127.354" style="fill:rgb(248,152,34);fill-rule:nonzero;"/>
            </g>
            <g transform="matrix(0.887754,0,0,1,20.6954,0)">
                <path d="M114.634,79.907C114.634,83.102 112.043,85.694 108.847,85.694L58.633,85.694C55.437,85.694 52.846,83.102 52.846,79.907L52.846,71.351C52.846,68.155 55.437,65.564 58.633,65.564L108.847,65.564C112.043,65.564 114.634,68.155 114.634,71.351L114.634,79.907Z" style="fill:rgb(75,123,190);fill-rule:nonzero;"/>
                <path d="M108.95,63.854L109.052,63.855L109.153,63.859L109.255,63.863L109.356,63.869L109.457,63.876L109.558,63.884L109.658,63.894L109.758,63.905L109.858,63.917L109.957,63.93L110.056,63.944L110.154,63.96L110.252,63.977L110.349,63.995L110.447,64.014L110.543,64.035L110.639,64.056L110.735,64.079L110.83,64.103L110.925,64.128L111.019,64.154L111.113,64.181L111.206,64.209L111.298,64.239L111.39,64.269L111.481,64.301L111.572,64.333L111.662,64.367L111.752,64.402L111.841,64.437L111.929,64.474L112.017,64.512L112.104,64.551L112.19,64.59L112.276,64.631L112.361,64.672L112.445,64.715L112.529,64.758L112.612,64.803L112.694,64.848L112.776,64.895L112.857,64.942L112.937,64.99L113.016,65.039L113.095,65.088L113.173,65.139L113.25,65.191L113.327,65.243L113.402,65.296L113.477,65.35L113.552,65.405L113.625,65.461L113.698,65.517L113.77,65.574L113.841,65.632L113.911,65.691L113.981,65.75L114.05,65.811L114.117,65.872L114.184,65.934L114.251,65.996L114.316,66.059L114.381,66.123L114.445,66.188L114.508,66.253L114.57,66.319L114.631,66.386L114.692,66.453L114.751,66.521L114.81,66.589L114.868,66.659L114.925,66.729L114.981,66.799L115.036,66.87L115.091,66.942L115.144,67.015L115.197,67.088L115.248,67.161L115.299,67.235L115.349,67.31L115.398,67.386L115.446,67.461L115.493,67.538L115.539,67.615L115.584,67.693L115.629,67.771L115.672,67.849L115.715,67.929L115.756,68.008L115.796,68.088L115.836,68.169L115.874,68.25L115.912,68.332L115.949,68.415L115.984,68.497L116.019,68.58L116.052,68.664L116.085,68.748L116.116,68.832L116.147,68.917L116.176,69.003L116.205,69.088L116.232,69.175L116.259,69.262L116.284,69.349L116.308,69.436L116.331,69.524L116.354,69.612L116.375,69.701L116.394,69.79L116.413,69.879L116.431,69.969L116.448,70.059L116.463,70.149L116.478,70.24L116.491,70.331L116.503,70.422L116.514,70.514L116.524,70.606L116.533,70.698L116.541,70.791L116.547,70.883L116.553,70.977L116.557,71.07L116.56,71.163L116.561,71.257L116.562,71.347L116.562,79.912L116.561,80.001L116.56,80.095L116.557,80.189L116.552,80.282L116.547,80.375L116.541,80.468L116.533,80.56L116.524,80.652L116.514,80.744L116.503,80.836L116.491,80.928L116.478,81.018L116.463,81.109L116.448,81.199L116.431,81.289L116.413,81.379L116.394,81.469L116.375,81.557L116.354,81.646L116.331,81.734L116.308,81.822L116.284,81.91L116.259,81.996L116.232,82.083L116.205,82.169L116.176,82.255L116.147,82.341L116.116,82.426L116.085,82.51L116.052,82.594L116.019,82.678L115.984,82.761L115.949,82.844L115.912,82.926L115.874,83.008L115.836,83.089L115.796,83.17L115.756,83.25L115.715,83.329L115.672,83.408L115.629,83.487L115.585,83.565L115.539,83.643L115.493,83.72L115.446,83.797L115.398,83.872L115.349,83.948L115.299,84.023L115.248,84.097L115.197,84.17L115.144,84.243L115.091,84.316L115.036,84.387L114.981,84.459L114.925,84.529L114.868,84.599L114.81,84.668L114.751,84.737L114.692,84.805L114.631,84.872L114.57,84.939L114.508,85.005L114.445,85.07L114.381,85.135L114.316,85.199L114.251,85.262L114.184,85.324L114.117,85.386L114.049,85.447L113.981,85.508L113.911,85.567L113.841,85.625L113.77,85.684L113.698,85.741L113.625,85.797L113.552,85.853L113.477,85.908L113.403,85.962L113.327,86.015L113.251,86.067L113.173,86.119L113.095,86.17L113.017,86.219L112.937,86.268L112.857,86.316L112.776,86.363L112.694,86.41L112.612,86.455L112.529,86.5L112.445,86.543L112.361,86.586L112.276,86.627L112.19,86.668L112.103,86.708L112.017,86.746L111.929,86.784L111.841,86.821L111.752,86.857L111.662,86.891L111.573,86.925L111.481,86.958L111.39,86.989L111.298,87.02L111.205,87.049L111.113,87.077L111.019,87.104L110.925,87.131L110.83,87.156L110.735,87.179L110.64,87.202L110.543,87.224L110.447,87.244L110.35,87.263L110.252,87.281L110.154,87.298L110.055,87.314L109.957,87.328L109.858,87.342L109.758,87.354L109.658,87.365L109.558,87.374L109.457,87.382L109.356,87.389L109.255,87.395L109.154,87.4L109.052,87.403L108.95,87.405L108.854,87.405L58.626,87.405L58.531,87.405L58.429,87.403L58.327,87.4L58.226,87.395L58.124,87.389L58.023,87.382L57.922,87.374L57.822,87.365L57.722,87.354L57.623,87.342L57.524,87.328L57.425,87.314L57.327,87.298L57.229,87.281L57.131,87.263L57.034,87.244L56.938,87.224L56.841,87.202L56.745,87.179L56.651,87.156L56.556,87.131L56.461,87.104L56.368,87.077L56.275,87.049L56.183,87.02L56.091,86.989L55.999,86.958L55.908,86.925L55.818,86.891L55.729,86.857L55.64,86.821L55.551,86.784L55.464,86.746L55.377,86.708L55.29,86.668L55.205,86.627L55.12,86.586L55.035,86.543L54.951,86.5L54.869,86.455L54.786,86.41L54.704,86.363L54.624,86.316L54.544,86.268L54.464,86.219L54.386,86.17L54.308,86.119L54.23,86.067L54.154,86.015L54.078,85.962L54.003,85.908L53.929,85.853L53.855,85.797L53.783,85.741L53.711,85.684L53.64,85.626L53.569,85.567L53.5,85.508L53.431,85.447L53.363,85.386L53.296,85.324L53.23,85.262L53.164,85.199L53.099,85.135L53.036,85.07L52.973,85.005L52.911,84.939L52.849,84.872L52.789,84.805L52.729,84.737L52.671,84.668L52.613,84.599L52.556,84.529L52.5,84.459L52.444,84.387L52.39,84.316L52.336,84.243L52.284,84.17L52.232,84.097L52.181,84.022L52.132,83.948L52.083,83.872L52.035,83.796L51.988,83.72L51.941,83.643L51.896,83.565L51.852,83.487L51.808,83.408L51.766,83.329L51.725,83.25L51.684,83.17L51.645,83.089L51.606,83.007L51.569,82.926L51.532,82.844L51.496,82.761L51.462,82.678L51.428,82.594L51.396,82.51L51.364,82.426L51.334,82.341L51.304,82.255L51.276,82.169L51.248,82.083L51.222,81.997L51.197,81.91L51.172,81.822L51.149,81.734L51.127,81.646L51.106,81.557L51.086,81.468L51.067,81.379L51.049,81.29L51.033,81.199L51.017,81.109L51.003,81.018L50.989,80.927L50.977,80.836L50.966,80.744L50.956,80.652L50.948,80.56L50.94,80.468L50.933,80.375L50.928,80.282L50.924,80.188L50.921,80.095L50.919,80.001L50.919,79.912L50.919,71.346L50.919,71.257L50.921,71.163L50.924,71.07L50.928,70.976L50.933,70.883L50.94,70.791L50.948,70.698L50.956,70.606L50.966,70.514L50.977,70.422L50.989,70.331L51.003,70.24L51.017,70.149L51.033,70.059L51.049,69.969L51.067,69.879L51.086,69.79L51.106,69.701L51.127,69.612L51.149,69.524L51.172,69.436L51.197,69.349L51.222,69.261L51.248,69.175L51.276,69.089L51.304,69.003L51.334,68.917L51.364,68.832L51.396,68.748L51.428,68.664L51.462,68.58L51.496,68.497L51.532,68.415L51.569,68.332L51.606,68.251L51.645,68.169L51.684,68.088L51.725,68.008L51.766,67.929L51.808,67.849L51.852,67.771L51.896,67.693L51.941,67.615L51.988,67.538L52.035,67.462L52.083,67.385L52.132,67.31L52.181,67.236L52.232,67.161L52.284,67.088L52.336,67.015L52.39,66.942L52.445,66.87L52.5,66.799L52.556,66.729L52.613,66.659L52.671,66.589L52.729,66.521L52.789,66.453L52.849,66.386L52.911,66.319L52.973,66.253L53.036,66.188L53.1,66.123L53.164,66.059L53.23,65.996L53.296,65.934L53.363,65.872L53.431,65.811L53.5,65.75L53.569,65.691L53.64,65.632L53.711,65.574L53.783,65.517L53.856,65.461L53.929,65.405L54.003,65.35L54.078,65.296L54.154,65.243L54.23,65.191L54.308,65.139L54.386,65.088L54.464,65.039L54.544,64.99L54.624,64.942L54.705,64.895L54.786,64.848L54.869,64.803L54.952,64.758L55.035,64.715L55.12,64.672L55.205,64.631L55.291,64.59L55.377,64.551L55.464,64.512L55.552,64.474L55.64,64.437L55.729,64.402L55.818,64.367L55.908,64.333L55.999,64.301L56.091,64.269L56.183,64.239L56.275,64.209L56.368,64.181L56.462,64.154L56.556,64.128L56.65,64.103L56.746,64.079L56.841,64.056L56.937,64.035L57.034,64.014L57.131,63.995L57.229,63.977L57.326,63.96L57.425,63.944L57.524,63.93L57.623,63.917L57.722,63.905L57.823,63.894L57.923,63.884L58.023,63.876L58.124,63.869L58.226,63.863L58.327,63.859L58.429,63.855L58.531,63.854L58.626,63.853L108.854,63.853L108.95,63.854ZM58.64,67.275L58.586,67.276L58.539,67.277L58.492,67.278L58.445,67.28L58.399,67.283L58.353,67.286L58.306,67.29L58.261,67.294L58.215,67.299L58.169,67.305L58.124,67.311L58.079,67.317L58.034,67.325L57.989,67.332L57.944,67.341L57.9,67.349L57.856,67.359L57.811,67.369L57.768,67.379L57.724,67.39L57.68,67.402L57.636,67.414L57.593,67.426L57.55,67.439L57.507,67.453L57.464,67.467L57.421,67.482L57.379,67.497L57.336,67.513L57.294,67.529L57.252,67.546L57.21,67.564L57.168,67.582L57.127,67.6L57.085,67.619L57.044,67.639L57.003,67.659L56.962,67.68L56.921,67.701L56.881,67.722L56.841,67.744L56.801,67.767L56.761,67.79L56.722,67.814L56.682,67.839L56.643,67.863L56.604,67.889L56.565,67.914L56.527,67.941L56.488,67.968L56.451,67.995L56.413,68.023L56.375,68.051L56.338,68.08L56.301,68.109L56.265,68.139L56.228,68.169L56.192,68.2L56.157,68.232L56.121,68.263L56.086,68.296L56.051,68.329L56.017,68.362L55.983,68.395L55.949,68.43L55.916,68.464L55.883,68.499L55.85,68.535L55.818,68.571L55.786,68.607L55.754,68.644L55.723,68.682L55.692,68.719L55.662,68.758L55.631,68.796L55.602,68.835L55.573,68.875L55.544,68.915L55.516,68.955L55.488,68.996L55.46,69.037L55.433,69.079L55.407,69.12L55.381,69.163L55.355,69.206L55.33,69.249L55.305,69.292L55.281,69.336L55.257,69.38L55.234,69.425L55.211,69.47L55.189,69.515L55.168,69.561L55.146,69.607L55.126,69.653L55.106,69.7L55.086,69.747L55.067,69.795L55.049,69.842L55.031,69.891L55.013,69.939L54.997,69.988L54.98,70.036L54.965,70.086L54.949,70.136L54.935,70.185L54.921,70.235L54.908,70.286L54.895,70.337L54.883,70.388L54.871,70.439L54.861,70.491L54.85,70.543L54.841,70.595L54.832,70.647L54.823,70.7L54.815,70.753L54.808,70.806L54.802,70.86L54.796,70.913L54.791,70.967L54.786,71.021L54.783,71.076L54.78,71.13L54.777,71.185L54.775,71.24L54.774,71.296L54.774,71.356L54.774,79.902L54.774,79.963L54.775,80.018L54.777,80.073L54.78,80.128L54.783,80.183L54.786,80.237L54.791,80.291L54.796,80.345L54.802,80.399L54.808,80.452L54.815,80.505L54.823,80.558L54.832,80.611L54.841,80.663L54.85,80.715L54.86,80.767L54.871,80.819L54.883,80.87L54.895,80.921L54.908,80.972L54.921,81.023L54.935,81.073L54.949,81.122L54.965,81.172L54.98,81.222L54.997,81.27L55.013,81.319L55.031,81.367L55.049,81.415L55.067,81.463L55.086,81.511L55.106,81.558L55.126,81.604L55.146,81.651L55.168,81.697L55.189,81.743L55.211,81.788L55.234,81.833L55.257,81.878L55.281,81.922L55.305,81.966L55.33,82.009L55.355,82.052L55.381,82.095L55.407,82.137L55.433,82.179L55.46,82.221L55.488,82.262L55.516,82.303L55.544,82.343L55.573,82.383L55.602,82.423L55.632,82.462L55.662,82.5L55.692,82.539L55.723,82.576L55.754,82.614L55.786,82.651L55.818,82.687L55.85,82.723L55.883,82.759L55.916,82.794L55.949,82.829L55.983,82.863L56.017,82.897L56.051,82.93L56.086,82.962L56.121,82.995L56.157,83.026L56.192,83.058L56.229,83.089L56.265,83.119L56.302,83.149L56.338,83.178L56.376,83.207L56.413,83.235L56.45,83.263L56.489,83.291L56.527,83.318L56.566,83.344L56.604,83.37L56.643,83.395L56.682,83.42L56.722,83.444L56.761,83.468L56.801,83.491L56.841,83.514L56.881,83.536L56.922,83.558L56.963,83.579L57.003,83.599L57.044,83.619L57.085,83.639L57.127,83.658L57.168,83.676L57.21,83.694L57.252,83.712L57.294,83.729L57.336,83.745L57.379,83.761L57.421,83.776L57.464,83.791L57.507,83.805L57.55,83.819L57.593,83.832L57.637,83.845L57.68,83.857L57.723,83.868L57.768,83.879L57.812,83.89L57.855,83.9L57.9,83.909L57.945,83.918L57.989,83.926L58.034,83.934L58.079,83.941L58.124,83.948L58.17,83.954L58.215,83.959L58.261,83.964L58.307,83.968L58.353,83.972L58.399,83.975L58.445,83.978L58.492,83.98L58.539,83.982L58.586,83.983L58.64,83.983L108.84,83.983L108.895,83.983L108.942,83.982L108.988,83.98L109.035,83.978L109.082,83.975L109.128,83.972L109.174,83.968L109.22,83.964L109.265,83.959L109.311,83.954L109.356,83.948L109.402,83.941L109.447,83.934L109.491,83.926L109.536,83.918L109.58,83.909L109.625,83.9L109.669,83.89L109.713,83.879L109.757,83.868L109.8,83.857L109.844,83.845L109.887,83.832L109.931,83.819L109.974,83.805L110.017,83.791L110.059,83.776L110.101,83.761L110.144,83.745L110.187,83.729L110.228,83.712L110.27,83.695L110.312,83.676L110.354,83.658L110.395,83.639L110.436,83.62L110.478,83.599L110.518,83.579L110.559,83.558L110.6,83.536L110.64,83.514L110.679,83.491L110.72,83.468L110.759,83.444L110.798,83.42L110.838,83.395L110.876,83.37L110.915,83.344L110.954,83.318L110.992,83.291L111.03,83.263L111.068,83.235L111.105,83.207L111.142,83.178L111.179,83.149L111.215,83.119L111.252,83.089L111.288,83.058L111.324,83.027L111.359,82.995L111.394,82.962L111.429,82.93L111.463,82.897L111.497,82.863L111.531,82.829L111.565,82.794L111.598,82.759L111.631,82.723L111.663,82.687L111.695,82.651L111.727,82.614L111.758,82.577L111.789,82.539L111.819,82.5L111.849,82.462L111.879,82.423L111.908,82.383L111.937,82.343L111.965,82.303L111.993,82.262L112.02,82.221L112.047,82.18L112.074,82.137L112.1,82.095L112.125,82.052L112.151,82.009L112.175,81.966L112.199,81.922L112.223,81.878L112.246,81.833L112.269,81.788L112.291,81.743L112.313,81.697L112.334,81.651L112.355,81.604L112.375,81.558L112.394,81.511L112.414,81.463L112.432,81.415L112.45,81.367L112.467,81.319L112.484,81.27L112.5,81.221L112.516,81.172L112.531,81.123L112.546,81.073L112.56,81.022L112.573,80.972L112.586,80.921L112.598,80.87L112.609,80.819L112.62,80.767L112.63,80.715L112.64,80.663L112.649,80.611L112.657,80.558L112.665,80.505L112.672,80.452L112.679,80.399L112.685,80.345L112.69,80.291L112.694,80.237L112.698,80.183L112.701,80.128L112.703,80.073L112.705,80.018L112.706,79.963L112.707,79.903L112.707,71.356L112.706,71.296L112.705,71.241L112.703,71.185L112.701,71.13L112.698,71.076L112.694,71.021L112.69,70.967L112.685,70.913L112.679,70.859L112.672,70.806L112.665,70.753L112.657,70.7L112.649,70.647L112.64,70.595L112.63,70.543L112.62,70.491L112.609,70.439L112.598,70.388L112.586,70.337L112.573,70.286L112.56,70.236L112.546,70.185L112.531,70.135L112.516,70.086L112.5,70.037L112.484,69.988L112.467,69.939L112.45,69.891L112.432,69.842L112.413,69.795L112.394,69.747L112.375,69.7L112.355,69.653L112.334,69.607L112.313,69.561L112.291,69.515L112.269,69.47L112.246,69.425L112.223,69.38L112.199,69.336L112.175,69.292L112.151,69.249L112.125,69.205L112.1,69.163L112.074,69.121L112.047,69.079L112.02,69.037L111.993,68.996L111.965,68.955L111.936,68.915L111.908,68.875L111.879,68.835L111.849,68.796L111.819,68.758L111.788,68.719L111.758,68.681L111.727,68.644L111.695,68.607L111.663,68.571L111.631,68.535L111.598,68.499L111.565,68.464L111.532,68.43L111.498,68.395L111.464,68.362L111.429,68.329L111.394,68.296L111.359,68.263L111.324,68.231L111.288,68.2L111.252,68.17L111.216,68.139L111.179,68.109L111.142,68.08L111.105,68.051L111.068,68.023L111.03,67.995L110.992,67.968L110.954,67.941L110.915,67.914L110.877,67.889L110.838,67.863L110.799,67.839L110.759,67.814L110.72,67.79L110.68,67.767L110.64,67.745L110.6,67.722L110.559,67.701L110.518,67.68L110.478,67.659L110.437,67.639L110.395,67.619L110.354,67.6L110.312,67.582L110.271,67.564L110.229,67.546L110.187,67.53L110.145,67.513L110.102,67.497L110.059,67.482L110.017,67.467L109.974,67.453L109.931,67.439L109.888,67.426L109.844,67.414L109.801,67.402L109.757,67.39L109.713,67.379L109.669,67.369L109.625,67.359L109.581,67.349L109.536,67.341L109.491,67.332L109.446,67.325L109.401,67.317L109.356,67.311L109.311,67.305L109.265,67.299L109.22,67.294L109.174,67.29L109.128,67.286L109.081,67.283L109.035,67.28L108.989,67.278L108.942,67.277L108.895,67.276L108.84,67.275L58.64,67.275Z" style="fill:rgb(211,28,91);"/>
            </g>
        </g>
    </g>
</svg>
